999
"DXF R12 Output" (www.mydxf.blogspot.com)
 0 
SECTION
 2 
HEADER
 9 
$ACADVER
 1 
AC1009
 9 
$EXTMIN
 10 
 0 
 20 
 0 
 9 
$EXTMAX
 10 
 8.5 
 20 
 11 
 0 
ENDSEC
 0 
SECTION
 2 
ENTITIES
0
POLYLINE
8
Calque 1
62
7
70
0
10
0.000000
20
0.000000
66
1
0
VERTEX
8
Calque 1
10
17.744221
20
278.718725
70
0
0
VERTEX
8
Calque 1
10
37.611771
20
278.718725
70
0
0
VERTEX
8
Calque 1
10
37.611771
20
258.851175
70
0
0
VERTEX
8
Calque 1
10
17.744221
20
258.851175
70
0
0
VERTEX
8
Calque 1
10
17.744221
20
278.718725
70
0
0
SEQEND
8
Calque 1
0
POLYLINE
8
Calque 1
62
7
70
0
10
0.000000
20
0.000000
66
1
0
VERTEX
8
Calque 1
10
41.515999
20
278.755402
70
0
0
VERTEX
8
Calque 1
10
61.383549
20
278.755402
70
0
0
VERTEX
8
Calque 1
10
61.383549
20
258.887852
70
0
0
VERTEX
8
Calque 1
10
41.515999
20
258.887852
70
0
0
VERTEX
8
Calque 1
10
41.515999
20
278.755402
70
0
0
SEQEND
8
Calque 1
0
POLYLINE
8
Calque 1
62
7
70
0
10
0.000000
20
0.000000
66
1
0
VERTEX
8
Calque 1
10
65.324448
20
278.755402
70
0
0
VERTEX
8
Calque 1
10
85.191998
20
278.755402
70
0
0
VERTEX
8
Calque 1
10
85.191998
20
258.887852
70
0
0
VERTEX
8
Calque 1
10
65.324448
20
258.887852
70
0
0
VERTEX
8
Calque 1
10
65.324448
20
278.755402
70
0
0
SEQEND
8
Calque 1
0
POLYLINE
8
Calque 1
62
7
70
0
10
0.000000
20
0.000000
66
1
0
VERTEX
8
Calque 1
10
17.716002
20
254.706795
70
0
0
VERTEX
8
Calque 1
10
37.583552
20
254.706795
70
0
0
VERTEX
8
Calque 1
10
37.583552
20
234.839245
70
0
0
VERTEX
8
Calque 1
10
17.716002
20
234.839245
70
0
0
VERTEX
8
Calque 1
10
17.716002
20
254.706795
70
0
0
SEQEND
8
Calque 1
0
POLYLINE
8
Calque 1
62
7
70
0
10
0.000000
20
0.000000
66
1
0
VERTEX
8
Calque 1
10
41.487778
20
254.743469
70
0
0
VERTEX
8
Calque 1
10
61.355328
20
254.743469
70
0
0
VERTEX
8
Calque 1
10
61.355328
20
234.875919
70
0
0
VERTEX
8
Calque 1
10
41.487778
20
234.875919
70
0
0
VERTEX
8
Calque 1
10
41.487778
20
254.743469
70
0
0
SEQEND
8
Calque 1
0
POLYLINE
8
Calque 1
62
7
70
0
10
0.000000
20
0.000000
66
1
0
VERTEX
8
Calque 1
10
65.296227
20
254.743469
70
0
0
VERTEX
8
Calque 1
10
85.163777
20
254.743469
70
0
0
VERTEX
8
Calque 1
10
85.163777
20
234.875919
70
0
0
VERTEX
8
Calque 1
10
65.296227
20
234.875919
70
0
0
VERTEX
8
Calque 1
10
65.296227
20
254.743469
70
0
0
SEQEND
8
Calque 1
0
POLYLINE
8
Calque 1
62
7
70
0
10
0.000000
20
0.000000
66
1
0
VERTEX
8
Calque 1
10
17.687784
20
230.694862
70
0
0
VERTEX
8
Calque 1
10
37.555334
20
230.694862
70
0
0
VERTEX
8
Calque 1
10
37.555334
20
210.827312
70
0
0
VERTEX
8
Calque 1
10
17.687784
20
210.827312
70
0
0
VERTEX
8
Calque 1
10
17.687784
20
230.694862
70
0
0
SEQEND
8
Calque 1
0
POLYLINE
8
Calque 1
62
7
70
0
10
0.000000
20
0.000000
66
1
0
VERTEX
8
Calque 1
10
41.459564
20
230.731537
70
0
0
VERTEX
8
Calque 1
10
61.327114
20
230.731537
70
0
0
VERTEX
8
Calque 1
10
61.327114
20
210.863987
70
0
0
VERTEX
8
Calque 1
10
41.459564
20
210.863987
70
0
0
VERTEX
8
Calque 1
10
41.459564
20
230.731537
70
0
0
SEQEND
8
Calque 1
0
POLYLINE
8
Calque 1
62
7
70
0
10
0.000000
20
0.000000
66
1
0
VERTEX
8
Calque 1
10
65.268021
20
230.731537
70
0
0
VERTEX
8
Calque 1
10
85.135571
20
230.731537
70
0
0
VERTEX
8
Calque 1
10
85.135571
20
210.863987
70
0
0
VERTEX
8
Calque 1
10
65.268021
20
210.863987
70
0
0
VERTEX
8
Calque 1
10
65.268021
20
230.731537
70
0
0
SEQEND
8
Calque 1
0
POLYLINE
8
Calque 1
62
7
70
0
10
0.000000
20
0.000000
66
1
0
VERTEX
8
Calque 1
10
14.024694
20
282.596601
70
0
0
VERTEX
8
Calque 1
10
88.947271
20
282.596601
70
0
0
VERTEX
8
Calque 1
10
88.947271
20
206.963399
70
0
0
VERTEX
8
Calque 1
10
14.024694
20
206.963399
70
0
0
VERTEX
8
Calque 1
10
14.024694
20
282.596601
70
0
0
SEQEND
8
Calque 1
0
POLYLINE
8
Calque 1
62
7
70
0
10
0.000000
20
0.000000
66
1
0
VERTEX
8
Calque 1
10
17.744219
20
203.085526
70
0
0
VERTEX
8
Calque 1
10
37.611769
20
203.085526
70
0
0
VERTEX
8
Calque 1
10
37.611769
20
183.217976
70
0
0
VERTEX
8
Calque 1
10
17.744219
20
183.217976
70
0
0
VERTEX
8
Calque 1
10
17.744219
20
203.085526
70
0
0
SEQEND
8
Calque 1
0
POLYLINE
8
Calque 1
62
7
70
0
10
0.000000
20
0.000000
66
1
0
VERTEX
8
Calque 1
10
41.515999
20
203.122192
70
0
0
VERTEX
8
Calque 1
10
61.383549
20
203.122192
70
0
0
VERTEX
8
Calque 1
10
61.383549
20
183.254642
70
0
0
VERTEX
8
Calque 1
10
41.515999
20
183.254642
70
0
0
VERTEX
8
Calque 1
10
41.515999
20
203.122192
70
0
0
SEQEND
8
Calque 1
0
POLYLINE
8
Calque 1
62
7
70
0
10
0.000000
20
0.000000
66
1
0
VERTEX
8
Calque 1
10
65.324448
20
203.122192
70
0
0
VERTEX
8
Calque 1
10
85.191998
20
203.122192
70
0
0
VERTEX
8
Calque 1
10
85.191998
20
183.254642
70
0
0
VERTEX
8
Calque 1
10
65.324448
20
183.254642
70
0
0
VERTEX
8
Calque 1
10
65.324448
20
203.122192
70
0
0
SEQEND
8
Calque 1
0
POLYLINE
8
Calque 1
62
7
70
0
10
0.000000
20
0.000000
66
1
0
VERTEX
8
Calque 1
10
17.716002
20
179.073590
70
0
0
VERTEX
8
Calque 1
10
37.583552
20
179.073590
70
0
0
VERTEX
8
Calque 1
10
37.583552
20
159.206040
70
0
0
VERTEX
8
Calque 1
10
17.716002
20
159.206040
70
0
0
VERTEX
8
Calque 1
10
17.716002
20
179.073590
70
0
0
SEQEND
8
Calque 1
0
POLYLINE
8
Calque 1
62
7
70
0
10
0.000000
20
0.000000
66
1
0
VERTEX
8
Calque 1
10
41.487778
20
179.110280
70
0
0
VERTEX
8
Calque 1
10
61.355328
20
179.110280
70
0
0
VERTEX
8
Calque 1
10
61.355328
20
159.242730
70
0
0
VERTEX
8
Calque 1
10
41.487778
20
159.242730
70
0
0
VERTEX
8
Calque 1
10
41.487778
20
179.110280
70
0
0
SEQEND
8
Calque 1
0
POLYLINE
8
Calque 1
62
7
70
0
10
0.000000
20
0.000000
66
1
0
VERTEX
8
Calque 1
10
65.296227
20
179.110280
70
0
0
VERTEX
8
Calque 1
10
85.163777
20
179.110280
70
0
0
VERTEX
8
Calque 1
10
85.163777
20
159.242730
70
0
0
VERTEX
8
Calque 1
10
65.296227
20
159.242730
70
0
0
VERTEX
8
Calque 1
10
65.296227
20
179.110280
70
0
0
SEQEND
8
Calque 1
0
POLYLINE
8
Calque 1
62
7
70
0
10
0.000000
20
0.000000
66
1
0
VERTEX
8
Calque 1
10
17.687784
20
155.061660
70
0
0
VERTEX
8
Calque 1
10
37.555334
20
155.061660
70
0
0
VERTEX
8
Calque 1
10
37.555334
20
135.194110
70
0
0
VERTEX
8
Calque 1
10
17.687784
20
135.194110
70
0
0
VERTEX
8
Calque 1
10
17.687784
20
155.061660
70
0
0
SEQEND
8
Calque 1
0
POLYLINE
8
Calque 1
62
7
70
0
10
0.000000
20
0.000000
66
1
0
VERTEX
8
Calque 1
10
41.459564
20
155.098340
70
0
0
VERTEX
8
Calque 1
10
61.327114
20
155.098340
70
0
0
VERTEX
8
Calque 1
10
61.327114
20
135.230790
70
0
0
VERTEX
8
Calque 1
10
41.459564
20
135.230790
70
0
0
VERTEX
8
Calque 1
10
41.459564
20
155.098340
70
0
0
SEQEND
8
Calque 1
0
POLYLINE
8
Calque 1
62
7
70
0
10
0.000000
20
0.000000
66
1
0
VERTEX
8
Calque 1
10
65.268021
20
155.098340
70
0
0
VERTEX
8
Calque 1
10
85.135571
20
155.098340
70
0
0
VERTEX
8
Calque 1
10
85.135571
20
135.230790
70
0
0
VERTEX
8
Calque 1
10
65.268021
20
135.230790
70
0
0
VERTEX
8
Calque 1
10
65.268021
20
155.098340
70
0
0
SEQEND
8
Calque 1
0
POLYLINE
8
Calque 1
62
7
70
0
10
0.000000
20
0.000000
66
1
0
VERTEX
8
Calque 1
10
14.024694
20
206.963402
70
0
0
VERTEX
8
Calque 1
10
88.947271
20
206.963402
70
0
0
VERTEX
8
Calque 1
10
88.947271
20
131.330200
70
0
0
VERTEX
8
Calque 1
10
14.024694
20
131.330200
70
0
0
VERTEX
8
Calque 1
10
14.024694
20
206.963402
70
0
0
SEQEND
8
Calque 1
0
POLYLINE
8
Calque 1
62
7
70
0
10
0.000000
20
0.000000
66
1
0
VERTEX
8
Calque 1
10
92.666801
20
278.718723
70
0
0
VERTEX
8
Calque 1
10
112.534351
20
278.718723
70
0
0
VERTEX
8
Calque 1
10
112.534351
20
258.851173
70
0
0
VERTEX
8
Calque 1
10
92.666801
20
258.851173
70
0
0
VERTEX
8
Calque 1
10
92.666801
20
278.718723
70
0
0
SEQEND
8
Calque 1
0
POLYLINE
8
Calque 1
62
7
70
0
10
0.000000
20
0.000000
66
1
0
VERTEX
8
Calque 1
10
116.438570
20
278.755398
70
0
0
VERTEX
8
Calque 1
10
136.306120
20
278.755398
70
0
0
VERTEX
8
Calque 1
10
136.306120
20
258.887848
70
0
0
VERTEX
8
Calque 1
10
116.438570
20
258.887848
70
0
0
VERTEX
8
Calque 1
10
116.438570
20
278.755398
70
0
0
SEQEND
8
Calque 1
0
POLYLINE
8
Calque 1
62
7
70
0
10
0.000000
20
0.000000
66
1
0
VERTEX
8
Calque 1
10
140.247020
20
278.755398
70
0
0
VERTEX
8
Calque 1
10
160.114570
20
278.755398
70
0
0
VERTEX
8
Calque 1
10
160.114570
20
258.887848
70
0
0
VERTEX
8
Calque 1
10
140.247020
20
258.887848
70
0
0
VERTEX
8
Calque 1
10
140.247020
20
278.755398
70
0
0
SEQEND
8
Calque 1
0
POLYLINE
8
Calque 1
62
7
70
0
10
0.000000
20
0.000000
66
1
0
VERTEX
8
Calque 1
10
92.638580
20
254.706783
70
0
0
VERTEX
8
Calque 1
10
112.506130
20
254.706783
70
0
0
VERTEX
8
Calque 1
10
112.506130
20
234.839233
70
0
0
VERTEX
8
Calque 1
10
92.638580
20
234.839233
70
0
0
VERTEX
8
Calque 1
10
92.638580
20
254.706783
70
0
0
SEQEND
8
Calque 1
0
POLYLINE
8
Calque 1
62
7
70
0
10
0.000000
20
0.000000
66
1
0
VERTEX
8
Calque 1
10
116.410350
20
254.743465
70
0
0
VERTEX
8
Calque 1
10
136.277900
20
254.743465
70
0
0
VERTEX
8
Calque 1
10
136.277900
20
234.875915
70
0
0
VERTEX
8
Calque 1
10
116.410350
20
234.875915
70
0
0
VERTEX
8
Calque 1
10
116.410350
20
254.743465
70
0
0
SEQEND
8
Calque 1
0
POLYLINE
8
Calque 1
62
7
70
0
10
0.000000
20
0.000000
66
1
0
VERTEX
8
Calque 1
10
140.218800
20
254.743465
70
0
0
VERTEX
8
Calque 1
10
160.086350
20
254.743465
70
0
0
VERTEX
8
Calque 1
10
160.086350
20
234.875915
70
0
0
VERTEX
8
Calque 1
10
140.218800
20
234.875915
70
0
0
VERTEX
8
Calque 1
10
140.218800
20
254.743465
70
0
0
SEQEND
8
Calque 1
0
POLYLINE
8
Calque 1
62
7
70
0
10
0.000000
20
0.000000
66
1
0
VERTEX
8
Calque 1
10
92.610359
20
230.694870
70
0
0
VERTEX
8
Calque 1
10
112.477909
20
230.694870
70
0
0
VERTEX
8
Calque 1
10
112.477909
20
210.827320
70
0
0
VERTEX
8
Calque 1
10
92.610359
20
210.827320
70
0
0
VERTEX
8
Calque 1
10
92.610359
20
230.694870
70
0
0
SEQEND
8
Calque 1
0
POLYLINE
8
Calque 1
62
7
70
0
10
0.000000
20
0.000000
66
1
0
VERTEX
8
Calque 1
10
116.382130
20
230.731537
70
0
0
VERTEX
8
Calque 1
10
136.249680
20
230.731537
70
0
0
VERTEX
8
Calque 1
10
136.249680
20
210.863987
70
0
0
VERTEX
8
Calque 1
10
116.382130
20
210.863987
70
0
0
VERTEX
8
Calque 1
10
116.382130
20
230.731537
70
0
0
SEQEND
8
Calque 1
0
POLYLINE
8
Calque 1
62
7
70
0
10
0.000000
20
0.000000
66
1
0
VERTEX
8
Calque 1
10
140.190600
20
230.731537
70
0
0
VERTEX
8
Calque 1
10
160.058150
20
230.731537
70
0
0
VERTEX
8
Calque 1
10
160.058150
20
210.863987
70
0
0
VERTEX
8
Calque 1
10
140.190600
20
210.863987
70
0
0
VERTEX
8
Calque 1
10
140.190600
20
230.731537
70
0
0
SEQEND
8
Calque 1
0
POLYLINE
8
Calque 1
62
7
70
0
10
0.000000
20
0.000000
66
1
0
VERTEX
8
Calque 1
10
88.947273
20
282.596601
70
0
0
VERTEX
8
Calque 1
10
163.869850
20
282.596601
70
0
0
VERTEX
8
Calque 1
10
163.869850
20
206.963399
70
0
0
VERTEX
8
Calque 1
10
88.947273
20
206.963399
70
0
0
VERTEX
8
Calque 1
10
88.947273
20
282.596601
70
0
0
SEQEND
8
Calque 1
0
POLYLINE
8
Calque 1
62
7
70
0
10
0.000000
20
0.000000
66
1
0
VERTEX
8
Calque 1
10
17.744232
20
127.452320
70
0
0
VERTEX
8
Calque 1
10
37.611782
20
127.452320
70
0
0
VERTEX
8
Calque 1
10
37.611782
20
107.584770
70
0
0
VERTEX
8
Calque 1
10
17.744232
20
107.584770
70
0
0
VERTEX
8
Calque 1
10
17.744232
20
127.452320
70
0
0
SEQEND
8
Calque 1
0
POLYLINE
8
Calque 1
62
7
70
0
10
0.000000
20
0.000000
66
1
0
VERTEX
8
Calque 1
10
41.515999
20
127.489000
70
0
0
VERTEX
8
Calque 1
10
61.383549
20
127.489000
70
0
0
VERTEX
8
Calque 1
10
61.383549
20
107.621450
70
0
0
VERTEX
8
Calque 1
10
41.515999
20
107.621450
70
0
0
VERTEX
8
Calque 1
10
41.515999
20
127.489000
70
0
0
SEQEND
8
Calque 1
0
POLYLINE
8
Calque 1
62
7
70
0
10
0.000000
20
0.000000
66
1
0
VERTEX
8
Calque 1
10
65.324448
20
127.489000
70
0
0
VERTEX
8
Calque 1
10
85.191998
20
127.489000
70
0
0
VERTEX
8
Calque 1
10
85.191998
20
107.621450
70
0
0
VERTEX
8
Calque 1
10
65.324448
20
107.621450
70
0
0
VERTEX
8
Calque 1
10
65.324448
20
127.489000
70
0
0
SEQEND
8
Calque 1
0
POLYLINE
8
Calque 1
62
7
70
0
10
0.000000
20
0.000000
66
1
0
VERTEX
8
Calque 1
10
17.715996
20
103.440380
70
0
0
VERTEX
8
Calque 1
10
37.583546
20
103.440380
70
0
0
VERTEX
8
Calque 1
10
37.583546
20
83.572830
70
0
0
VERTEX
8
Calque 1
10
17.715996
20
83.572830
70
0
0
VERTEX
8
Calque 1
10
17.715996
20
103.440380
70
0
0
SEQEND
8
Calque 1
0
POLYLINE
8
Calque 1
62
7
70
0
10
0.000000
20
0.000000
66
1
0
VERTEX
8
Calque 1
10
41.487785
20
103.477070
70
0
0
VERTEX
8
Calque 1
10
61.355335
20
103.477070
70
0
0
VERTEX
8
Calque 1
10
61.355335
20
83.609520
70
0
0
VERTEX
8
Calque 1
10
41.487785
20
83.609520
70
0
0
VERTEX
8
Calque 1
10
41.487785
20
103.477070
70
0
0
SEQEND
8
Calque 1
0
POLYLINE
8
Calque 1
62
7
70
0
10
0.000000
20
0.000000
66
1
0
VERTEX
8
Calque 1
10
65.296219
20
103.477070
70
0
0
VERTEX
8
Calque 1
10
85.163769
20
103.477070
70
0
0
VERTEX
8
Calque 1
10
85.163769
20
83.609520
70
0
0
VERTEX
8
Calque 1
10
65.296219
20
83.609520
70
0
0
VERTEX
8
Calque 1
10
65.296219
20
103.477070
70
0
0
SEQEND
8
Calque 1
0
POLYLINE
8
Calque 1
62
7
70
0
10
0.000000
20
0.000000
66
1
0
VERTEX
8
Calque 1
10
17.687790
20
79.428450
70
0
0
VERTEX
8
Calque 1
10
37.555340
20
79.428450
70
0
0
VERTEX
8
Calque 1
10
37.555340
20
59.560900
70
0
0
VERTEX
8
Calque 1
10
17.687790
20
59.560900
70
0
0
VERTEX
8
Calque 1
10
17.687790
20
79.428450
70
0
0
SEQEND
8
Calque 1
0
POLYLINE
8
Calque 1
62
7
70
0
10
0.000000
20
0.000000
66
1
0
VERTEX
8
Calque 1
10
41.459572
20
79.465120
70
0
0
VERTEX
8
Calque 1
10
61.327122
20
79.465120
70
0
0
VERTEX
8
Calque 1
10
61.327122
20
59.597570
70
0
0
VERTEX
8
Calque 1
10
41.459572
20
59.597570
70
0
0
VERTEX
8
Calque 1
10
41.459572
20
79.465120
70
0
0
SEQEND
8
Calque 1
0
POLYLINE
8
Calque 1
62
7
70
0
10
0.000000
20
0.000000
66
1
0
VERTEX
8
Calque 1
10
65.268021
20
79.465120
70
0
0
VERTEX
8
Calque 1
10
85.135571
20
79.465120
70
0
0
VERTEX
8
Calque 1
10
85.135571
20
59.597570
70
0
0
VERTEX
8
Calque 1
10
65.268021
20
59.597570
70
0
0
VERTEX
8
Calque 1
10
65.268021
20
79.465120
70
0
0
SEQEND
8
Calque 1
0
POLYLINE
8
Calque 1
62
7
70
0
10
0.000000
20
0.000000
66
1
0
VERTEX
8
Calque 1
10
14.024694
20
131.330200
70
0
0
VERTEX
8
Calque 1
10
88.947271
20
131.330200
70
0
0
VERTEX
8
Calque 1
10
88.947271
20
55.696998
70
0
0
VERTEX
8
Calque 1
10
14.024694
20
55.696998
70
0
0
VERTEX
8
Calque 1
10
14.024694
20
131.330200
70
0
0
SEQEND
8
Calque 1
0
POLYLINE
8
Calque 1
62
7
70
0
10
0.000000
20
0.000000
66
1
0
VERTEX
8
Calque 1
10
92.666794
20
127.452320
70
0
0
VERTEX
8
Calque 1
10
112.534344
20
127.452320
70
0
0
VERTEX
8
Calque 1
10
112.534344
20
107.584770
70
0
0
VERTEX
8
Calque 1
10
92.666794
20
107.584770
70
0
0
VERTEX
8
Calque 1
10
92.666794
20
127.452320
70
0
0
SEQEND
8
Calque 1
0
POLYLINE
8
Calque 1
62
7
70
0
10
0.000000
20
0.000000
66
1
0
VERTEX
8
Calque 1
10
116.438580
20
127.489000
70
0
0
VERTEX
8
Calque 1
10
136.306130
20
127.489000
70
0
0
VERTEX
8
Calque 1
10
136.306130
20
107.621450
70
0
0
VERTEX
8
Calque 1
10
116.438580
20
107.621450
70
0
0
VERTEX
8
Calque 1
10
116.438580
20
127.489000
70
0
0
SEQEND
8
Calque 1
0
POLYLINE
8
Calque 1
62
7
70
0
10
0.000000
20
0.000000
66
1
0
VERTEX
8
Calque 1
10
140.247020
20
127.489000
70
0
0
VERTEX
8
Calque 1
10
160.114570
20
127.489000
70
0
0
VERTEX
8
Calque 1
10
160.114570
20
107.621450
70
0
0
VERTEX
8
Calque 1
10
140.247020
20
107.621450
70
0
0
VERTEX
8
Calque 1
10
140.247020
20
127.489000
70
0
0
SEQEND
8
Calque 1
0
POLYLINE
8
Calque 1
62
7
70
0
10
0.000000
20
0.000000
66
1
0
VERTEX
8
Calque 1
10
92.638580
20
103.440380
70
0
0
VERTEX
8
Calque 1
10
112.506130
20
103.440380
70
0
0
VERTEX
8
Calque 1
10
112.506130
20
83.572830
70
0
0
VERTEX
8
Calque 1
10
92.638580
20
83.572830
70
0
0
VERTEX
8
Calque 1
10
92.638580
20
103.440380
70
0
0
SEQEND
8
Calque 1
0
POLYLINE
8
Calque 1
62
7
70
0
10
0.000000
20
0.000000
66
1
0
VERTEX
8
Calque 1
10
116.410340
20
103.477070
70
0
0
VERTEX
8
Calque 1
10
136.277890
20
103.477070
70
0
0
VERTEX
8
Calque 1
10
136.277890
20
83.609520
70
0
0
VERTEX
8
Calque 1
10
116.410340
20
83.609520
70
0
0
VERTEX
8
Calque 1
10
116.410340
20
103.477070
70
0
0
SEQEND
8
Calque 1
0
POLYLINE
8
Calque 1
62
7
70
0
10
0.000000
20
0.000000
66
1
0
VERTEX
8
Calque 1
10
140.218800
20
103.477070
70
0
0
VERTEX
8
Calque 1
10
160.086350
20
103.477070
70
0
0
VERTEX
8
Calque 1
10
160.086350
20
83.609520
70
0
0
VERTEX
8
Calque 1
10
140.218800
20
83.609520
70
0
0
VERTEX
8
Calque 1
10
140.218800
20
103.477070
70
0
0
SEQEND
8
Calque 1
0
POLYLINE
8
Calque 1
62
7
70
0
10
0.000000
20
0.000000
66
1
0
VERTEX
8
Calque 1
10
92.610352
20
79.428470
70
0
0
VERTEX
8
Calque 1
10
112.477902
20
79.428470
70
0
0
VERTEX
8
Calque 1
10
112.477902
20
59.560920
70
0
0
VERTEX
8
Calque 1
10
92.610352
20
59.560920
70
0
0
VERTEX
8
Calque 1
10
92.610352
20
79.428470
70
0
0
SEQEND
8
Calque 1
0
POLYLINE
8
Calque 1
62
7
70
0
10
0.000000
20
0.000000
66
1
0
VERTEX
8
Calque 1
10
116.382130
20
79.465120
70
0
0
VERTEX
8
Calque 1
10
136.249680
20
79.465120
70
0
0
VERTEX
8
Calque 1
10
136.249680
20
59.597570
70
0
0
VERTEX
8
Calque 1
10
116.382130
20
59.597570
70
0
0
VERTEX
8
Calque 1
10
116.382130
20
79.465120
70
0
0
SEQEND
8
Calque 1
0
POLYLINE
8
Calque 1
62
7
70
0
10
0.000000
20
0.000000
66
1
0
VERTEX
8
Calque 1
10
140.190600
20
79.465120
70
0
0
VERTEX
8
Calque 1
10
160.058150
20
79.465120
70
0
0
VERTEX
8
Calque 1
10
160.058150
20
59.597570
70
0
0
VERTEX
8
Calque 1
10
140.190600
20
59.597570
70
0
0
VERTEX
8
Calque 1
10
140.190600
20
79.465120
70
0
0
SEQEND
8
Calque 1
0
POLYLINE
8
Calque 1
62
7
70
0
10
0.000000
20
0.000000
66
1
0
VERTEX
8
Calque 1
10
88.947266
20
131.330200
70
0
0
VERTEX
8
Calque 1
10
163.869843
20
131.330200
70
0
0
VERTEX
8
Calque 1
10
163.869843
20
55.696998
70
0
0
VERTEX
8
Calque 1
10
88.947266
20
55.696998
70
0
0
VERTEX
8
Calque 1
10
88.947266
20
131.330200
70
0
0
SEQEND
8
Calque 1
0
POLYLINE
8
Calque 1
62
7
70
0
10
0.000000
20
0.000000
66
1
0
VERTEX
8
Calque 1
10
92.666786
20
203.085526
70
0
0
VERTEX
8
Calque 1
10
112.534336
20
203.085526
70
0
0
VERTEX
8
Calque 1
10
112.534336
20
183.217976
70
0
0
VERTEX
8
Calque 1
10
92.666786
20
183.217976
70
0
0
VERTEX
8
Calque 1
10
92.666786
20
203.085526
70
0
0
SEQEND
8
Calque 1
0
POLYLINE
8
Calque 1
62
7
70
0
10
0.000000
20
0.000000
66
1
0
VERTEX
8
Calque 1
10
116.438570
20
203.122192
70
0
0
VERTEX
8
Calque 1
10
136.306120
20
203.122192
70
0
0
VERTEX
8
Calque 1
10
136.306120
20
183.254642
70
0
0
VERTEX
8
Calque 1
10
116.438570
20
183.254642
70
0
0
VERTEX
8
Calque 1
10
116.438570
20
203.122192
70
0
0
SEQEND
8
Calque 1
0
POLYLINE
8
Calque 1
62
7
70
0
10
0.000000
20
0.000000
66
1
0
VERTEX
8
Calque 1
10
140.247020
20
203.122192
70
0
0
VERTEX
8
Calque 1
10
160.114570
20
203.122192
70
0
0
VERTEX
8
Calque 1
10
160.114570
20
183.254642
70
0
0
VERTEX
8
Calque 1
10
140.247020
20
183.254642
70
0
0
VERTEX
8
Calque 1
10
140.247020
20
203.122192
70
0
0
SEQEND
8
Calque 1
0
POLYLINE
8
Calque 1
62
7
70
0
10
0.000000
20
0.000000
66
1
0
VERTEX
8
Calque 1
10
92.638580
20
179.073590
70
0
0
VERTEX
8
Calque 1
10
112.506130
20
179.073590
70
0
0
VERTEX
8
Calque 1
10
112.506130
20
159.206040
70
0
0
VERTEX
8
Calque 1
10
92.638580
20
159.206040
70
0
0
VERTEX
8
Calque 1
10
92.638580
20
179.073590
70
0
0
SEQEND
8
Calque 1
0
POLYLINE
8
Calque 1
62
7
70
0
10
0.000000
20
0.000000
66
1
0
VERTEX
8
Calque 1
10
116.410350
20
179.110300
70
0
0
VERTEX
8
Calque 1
10
136.277900
20
179.110300
70
0
0
VERTEX
8
Calque 1
10
136.277900
20
159.242750
70
0
0
VERTEX
8
Calque 1
10
116.410350
20
159.242750
70
0
0
VERTEX
8
Calque 1
10
116.410350
20
179.110300
70
0
0
SEQEND
8
Calque 1
0
POLYLINE
8
Calque 1
62
7
70
0
10
0.000000
20
0.000000
66
1
0
VERTEX
8
Calque 1
10
140.218800
20
179.110300
70
0
0
VERTEX
8
Calque 1
10
160.086350
20
179.110300
70
0
0
VERTEX
8
Calque 1
10
160.086350
20
159.242750
70
0
0
VERTEX
8
Calque 1
10
140.218800
20
159.242750
70
0
0
VERTEX
8
Calque 1
10
140.218800
20
179.110300
70
0
0
SEQEND
8
Calque 1
0
POLYLINE
8
Calque 1
62
7
70
0
10
0.000000
20
0.000000
66
1
0
VERTEX
8
Calque 1
10
92.610359
20
155.061660
70
0
0
VERTEX
8
Calque 1
10
112.477909
20
155.061660
70
0
0
VERTEX
8
Calque 1
10
112.477909
20
135.194110
70
0
0
VERTEX
8
Calque 1
10
92.610359
20
135.194110
70
0
0
VERTEX
8
Calque 1
10
92.610359
20
155.061660
70
0
0
SEQEND
8
Calque 1
0
POLYLINE
8
Calque 1
62
7
70
0
10
0.000000
20
0.000000
66
1
0
VERTEX
8
Calque 1
10
116.382130
20
155.098340
70
0
0
VERTEX
8
Calque 1
10
136.249680
20
155.098340
70
0
0
VERTEX
8
Calque 1
10
136.249680
20
135.230790
70
0
0
VERTEX
8
Calque 1
10
116.382130
20
135.230790
70
0
0
VERTEX
8
Calque 1
10
116.382130
20
155.098340
70
0
0
SEQEND
8
Calque 1
0
POLYLINE
8
Calque 1
62
7
70
0
10
0.000000
20
0.000000
66
1
0
VERTEX
8
Calque 1
10
140.190600
20
155.098340
70
0
0
VERTEX
8
Calque 1
10
160.058150
20
155.098340
70
0
0
VERTEX
8
Calque 1
10
160.058150
20
135.230790
70
0
0
VERTEX
8
Calque 1
10
140.190600
20
135.230790
70
0
0
VERTEX
8
Calque 1
10
140.190600
20
155.098340
70
0
0
SEQEND
8
Calque 1
0
POLYLINE
8
Calque 1
62
7
70
0
10
0.000000
20
0.000000
66
1
0
VERTEX
8
Calque 1
10
88.947273
20
206.963409
70
0
0
VERTEX
8
Calque 1
10
163.869850
20
206.963409
70
0
0
VERTEX
8
Calque 1
10
163.869850
20
131.330207
70
0
0
VERTEX
8
Calque 1
10
88.947273
20
131.330207
70
0
0
VERTEX
8
Calque 1
10
88.947273
20
206.963409
70
0
0
SEQEND
8
Calque 1
0
POLYLINE
8
Calque 1
62
7
70
0
10
0.000000
20
0.000000
66
1
0
VERTEX
8
Calque 1
10
81.711195
20
163.659568
70
0
0
VERTEX
8
Calque 1
10
67.958026
20
163.616718
70
0
0
VERTEX
8
Calque 1
10
74.797207
20
175.437685
70
0
0
VERTEX
8
Calque 1
10
81.711195
20
163.659568
70
0
0
SEQEND
8
Calque 1
0
POLYLINE
8
Calque 1
62
7
70
0
10
0.000000
20
0.000000
66
1
0
VERTEX
8
Calque 1
10
34.526995
20
139.380568
70
0
0
VERTEX
8
Calque 1
10
20.773826
20
139.337718
70
0
0
VERTEX
8
Calque 1
10
27.613007
20
151.158685
70
0
0
VERTEX
8
Calque 1
10
34.526995
20
139.380568
70
0
0
SEQEND
8
Calque 1
0
POLYLINE
8
Calque 1
62
7
70
0
10
0.000000
20
0.000000
66
1
0
VERTEX
8
Calque 1
10
81.956095
20
139.423568
70
0
0
VERTEX
8
Calque 1
10
68.202926
20
139.380718
70
0
0
VERTEX
8
Calque 1
10
75.042107
20
151.201685
70
0
0
VERTEX
8
Calque 1
10
81.956095
20
139.423568
70
0
0
SEQEND
8
Calque 1
0
POLYLINE
8
Calque 1
62
7
70
0
10
0.000000
20
0.000000
66
1
0
VERTEX
8
Calque 1
10
27.798542
20
227.222481
70
0
0
VERTEX
8
Calque 1
10
26.752221
20
227.144089
70
0
0
VERTEX
8
Calque 1
10
25.745984
20
226.915127
70
0
0
VERTEX
8
Calque 1
10
23.909550
20
226.042768
70
0
0
VERTEX
8
Calque 1
10
22.400824
20
224.679962
70
0
0
VERTEX
8
Calque 1
10
21.804220
20
223.837940
70
0
0
VERTEX
8
Calque 1
10
21.331385
20
222.901265
70
0
0
VERTEX
8
Calque 1
10
21.003400
20
221.904591
70
0
0
VERTEX
8
Calque 1
10
20.829864
20
220.887329
70
0
0
VERTEX
8
Calque 1
10
20.933045
20
218.856849
70
0
0
VERTEX
8
Calque 1
10
21.614749
20
216.941444
70
0
0
VERTEX
8
Calque 1
10
22.164365
20
216.068026
70
0
0
VERTEX
8
Calque 1
10
22.848795
20
215.272734
70
0
0
VERTEX
8
Calque 1
10
23.644087
20
214.588304
70
0
0
VERTEX
8
Calque 1
10
24.517505
20
214.038688
70
0
0
VERTEX
8
Calque 1
10
26.432910
20
213.356984
70
0
0
VERTEX
8
Calque 1
10
28.463390
20
213.253803
70
0
0
VERTEX
8
Calque 1
10
29.480652
20
213.427339
70
0
0
VERTEX
8
Calque 1
10
30.477326
20
213.755324
70
0
0
VERTEX
8
Calque 1
10
31.414001
20
214.228159
70
0
0
VERTEX
8
Calque 1
10
32.256023
20
214.824763
70
0
0
VERTEX
8
Calque 1
10
33.618829
20
216.333489
70
0
0
VERTEX
8
Calque 1
10
34.491188
20
218.169923
70
0
0
VERTEX
8
Calque 1
10
34.720150
20
219.176160
70
0
0
VERTEX
8
Calque 1
10
34.798542
20
220.222481
70
0
0
VERTEX
8
Calque 1
10
34.656327
20
221.633225
70
0
0
VERTEX
8
Calque 1
10
34.248447
20
222.947197
70
0
0
VERTEX
8
Calque 1
10
33.603052
20
224.136248
70
0
0
VERTEX
8
Calque 1
10
32.748289
20
225.172228
70
0
0
VERTEX
8
Calque 1
10
31.712309
20
226.026991
70
0
0
VERTEX
8
Calque 1
10
30.523258
20
226.672386
70
0
0
VERTEX
8
Calque 1
10
29.209286
20
227.080266
70
0
0
VERTEX
8
Calque 1
10
27.798542
20
227.222481
70
0
0
VERTEX
8
Calque 1
10
27.798542
20
227.222481
70
0
0
SEQEND
8
Calque 1
0
POLYLINE
8
Calque 1
62
7
70
0
10
0.000000
20
0.000000
66
1
0
VERTEX
8
Calque 1
10
52.201084
20
227.102692
70
0
0
VERTEX
8
Calque 1
10
51.154763
20
227.024300
70
0
0
VERTEX
8
Calque 1
10
50.148526
20
226.795338
70
0
0
VERTEX
8
Calque 1
10
48.312092
20
225.922979
70
0
0
VERTEX
8
Calque 1
10
46.803366
20
224.560173
70
0
0
VERTEX
8
Calque 1
10
46.206762
20
223.718151
70
0
0
VERTEX
8
Calque 1
10
45.733927
20
222.781476
70
0
0
VERTEX
8
Calque 1
10
45.405942
20
221.784802
70
0
0
VERTEX
8
Calque 1
10
45.232406
20
220.767540
70
0
0
VERTEX
8
Calque 1
10
45.335587
20
218.737060
70
0
0
VERTEX
8
Calque 1
10
46.017291
20
216.821655
70
0
0
VERTEX
8
Calque 1
10
46.566907
20
215.948237
70
0
0
VERTEX
8
Calque 1
10
47.251337
20
215.152945
70
0
0
VERTEX
8
Calque 1
10
48.046629
20
214.468515
70
0
0
VERTEX
8
Calque 1
10
48.920047
20
213.918899
70
0
0
VERTEX
8
Calque 1
10
50.835452
20
213.237195
70
0
0
VERTEX
8
Calque 1
10
52.865932
20
213.134014
70
0
0
VERTEX
8
Calque 1
10
53.883194
20
213.307550
70
0
0
VERTEX
8
Calque 1
10
54.879868
20
213.635535
70
0
0
VERTEX
8
Calque 1
10
55.816543
20
214.108370
70
0
0
VERTEX
8
Calque 1
10
56.658565
20
214.704974
70
0
0
VERTEX
8
Calque 1
10
58.021371
20
216.213700
70
0
0
VERTEX
8
Calque 1
10
58.893730
20
218.050134
70
0
0
VERTEX
8
Calque 1
10
59.122692
20
219.056371
70
0
0
VERTEX
8
Calque 1
10
59.201084
20
220.102692
70
0
0
VERTEX
8
Calque 1
10
59.065338
20
221.474701
70
0
0
VERTEX
8
Calque 1
10
58.668241
20
222.781476
70
0
0
VERTEX
8
Calque 1
10
58.025002
20
223.986296
70
0
0
VERTEX
8
Calque 1
10
57.150831
20
225.052439
70
0
0
VERTEX
8
Calque 1
10
56.084688
20
225.926610
70
0
0
VERTEX
8
Calque 1
10
54.879868
20
226.569849
70
0
0
VERTEX
8
Calque 1
10
53.573093
20
226.966946
70
0
0
VERTEX
8
Calque 1
10
52.201084
20
227.102692
70
0
0
VERTEX
8
Calque 1
10
52.201084
20
227.102692
70
0
0
SEQEND
8
Calque 1
0
POLYLINE
8
Calque 1
62
7
70
0
10
0.000000
20
0.000000
66
1
0
VERTEX
8
Calque 1
10
75.190285
20
227.850769
70
0
0
VERTEX
8
Calque 1
10
74.143964
20
227.772377
70
0
0
VERTEX
8
Calque 1
10
73.137727
20
227.543415
70
0
0
VERTEX
8
Calque 1
10
71.301293
20
226.671056
70
0
0
VERTEX
8
Calque 1
10
69.792567
20
225.308250
70
0
0
VERTEX
8
Calque 1
10
69.195963
20
224.466228
70
0
0
VERTEX
8
Calque 1
10
68.723128
20
223.529553
70
0
0
VERTEX
8
Calque 1
10
68.395143
20
222.532879
70
0
0
VERTEX
8
Calque 1
10
68.221607
20
221.515617
70
0
0
VERTEX
8
Calque 1
10
68.324788
20
219.485137
70
0
0
VERTEX
8
Calque 1
10
69.006492
20
217.569732
70
0
0
VERTEX
8
Calque 1
10
69.556108
20
216.696314
70
0
0
VERTEX
8
Calque 1
10
70.240538
20
215.901022
70
0
0
VERTEX
8
Calque 1
10
71.035830
20
215.216592
70
0
0
VERTEX
8
Calque 1
10
71.909248
20
214.666976
70
0
0
VERTEX
8
Calque 1
10
73.824653
20
213.985272
70
0
0
VERTEX
8
Calque 1
10
75.855133
20
213.882091
70
0
0
VERTEX
8
Calque 1
10
76.872395
20
214.055627
70
0
0
VERTEX
8
Calque 1
10
77.869069
20
214.383612
70
0
0
VERTEX
8
Calque 1
10
78.805744
20
214.856447
70
0
0
VERTEX
8
Calque 1
10
79.647766
20
215.453051
70
0
0
VERTEX
8
Calque 1
10
81.010572
20
216.961777
70
0
0
VERTEX
8
Calque 1
10
81.882931
20
218.798211
70
0
0
VERTEX
8
Calque 1
10
82.111893
20
219.804448
70
0
0
VERTEX
8
Calque 1
10
82.190285
20
220.850769
70
0
0
VERTEX
8
Calque 1
10
82.054539
20
222.222778
70
0
0
VERTEX
8
Calque 1
10
81.657442
20
223.529553
70
0
0
VERTEX
8
Calque 1
10
81.014203
20
224.734373
70
0
0
VERTEX
8
Calque 1
10
80.140032
20
225.800516
70
0
0
VERTEX
8
Calque 1
10
79.073889
20
226.674687
70
0
0
VERTEX
8
Calque 1
10
77.869069
20
227.317926
70
0
0
VERTEX
8
Calque 1
10
76.562294
20
227.715023
70
0
0
VERTEX
8
Calque 1
10
75.190285
20
227.850769
70
0
0
VERTEX
8
Calque 1
10
75.190285
20
227.850769
70
0
0
SEQEND
8
Calque 1
0
POLYLINE
8
Calque 1
62
7
70
0
10
0.000000
20
0.000000
66
1
0
VERTEX
8
Calque 1
10
26.862852
20
251.100800
70
0
0
VERTEX
8
Calque 1
10
25.452108
20
250.958585
70
0
0
VERTEX
8
Calque 1
10
24.138136
20
250.550705
70
0
0
VERTEX
8
Calque 1
10
22.949085
20
249.905310
70
0
0
VERTEX
8
Calque 1
10
21.913105
20
249.050547
70
0
0
VERTEX
8
Calque 1
10
21.058342
20
248.014567
70
0
0
VERTEX
8
Calque 1
10
20.412947
20
246.825516
70
0
0
VERTEX
8
Calque 1
10
20.005067
20
245.511544
70
0
0
VERTEX
8
Calque 1
10
19.862852
20
244.100800
70
0
0
VERTEX
8
Calque 1
10
20.005067
20
242.690056
70
0
0
VERTEX
8
Calque 1
10
20.412947
20
241.376084
70
0
0
VERTEX
8
Calque 1
10
21.058342
20
240.187033
70
0
0
VERTEX
8
Calque 1
10
21.913105
20
239.151053
70
0
0
VERTEX
8
Calque 1
10
22.949085
20
238.296290
70
0
0
VERTEX
8
Calque 1
10
24.138136
20
237.650895
70
0
0
VERTEX
8
Calque 1
10
25.452108
20
237.243015
70
0
0
VERTEX
8
Calque 1
10
26.862852
20
237.100800
70
0
0
VERTEX
8
Calque 1
10
28.273596
20
237.243015
70
0
0
VERTEX
8
Calque 1
10
29.587568
20
237.650895
70
0
0
VERTEX
8
Calque 1
10
30.776619
20
238.296290
70
0
0
VERTEX
8
Calque 1
10
31.812599
20
239.151053
70
0
0
VERTEX
8
Calque 1
10
32.667362
20
240.187033
70
0
0
VERTEX
8
Calque 1
10
33.312757
20
241.376084
70
0
0
VERTEX
8
Calque 1
10
33.720637
20
242.690056
70
0
0
VERTEX
8
Calque 1
10
33.862852
20
244.100800
70
0
0
VERTEX
8
Calque 1
10
33.727106
20
245.472809
70
0
0
VERTEX
8
Calque 1
10
33.330009
20
246.779584
70
0
0
VERTEX
8
Calque 1
10
32.686770
20
247.984404
70
0
0
VERTEX
8
Calque 1
10
31.812599
20
249.050547
70
0
0
VERTEX
8
Calque 1
10
30.746456
20
249.924718
70
0
0
VERTEX
8
Calque 1
10
29.541636
20
250.567957
70
0
0
VERTEX
8
Calque 1
10
28.234861
20
250.965054
70
0
0
VERTEX
8
Calque 1
10
26.862852
20
251.100800
70
0
0
VERTEX
8
Calque 1
10
26.862852
20
251.100800
70
0
0
SEQEND
8
Calque 1
0
POLYLINE
8
Calque 1
62
7
70
0
10
0.000000
20
0.000000
66
1
0
VERTEX
8
Calque 1
10
51.265392
20
250.981010
70
0
0
VERTEX
8
Calque 1
10
50.219071
20
250.902618
70
0
0
VERTEX
8
Calque 1
10
49.212834
20
250.673656
70
0
0
VERTEX
8
Calque 1
10
47.376400
20
249.801297
70
0
0
VERTEX
8
Calque 1
10
45.867674
20
248.438491
70
0
0
VERTEX
8
Calque 1
10
45.271070
20
247.596469
70
0
0
VERTEX
8
Calque 1
10
44.798235
20
246.659794
70
0
0
VERTEX
8
Calque 1
10
44.470250
20
245.663120
70
0
0
VERTEX
8
Calque 1
10
44.296714
20
244.645858
70
0
0
VERTEX
8
Calque 1
10
44.399895
20
242.615378
70
0
0
VERTEX
8
Calque 1
10
45.081599
20
240.699973
70
0
0
VERTEX
8
Calque 1
10
45.631215
20
239.826555
70
0
0
VERTEX
8
Calque 1
10
46.315645
20
239.031263
70
0
0
VERTEX
8
Calque 1
10
47.110937
20
238.346833
70
0
0
VERTEX
8
Calque 1
10
47.984355
20
237.797217
70
0
0
VERTEX
8
Calque 1
10
49.899760
20
237.115513
70
0
0
VERTEX
8
Calque 1
10
51.930240
20
237.012332
70
0
0
VERTEX
8
Calque 1
10
52.947502
20
237.185868
70
0
0
VERTEX
8
Calque 1
10
53.944176
20
237.513853
70
0
0
VERTEX
8
Calque 1
10
54.880851
20
237.986688
70
0
0
VERTEX
8
Calque 1
10
55.722873
20
238.583292
70
0
0
VERTEX
8
Calque 1
10
57.085679
20
240.092018
70
0
0
VERTEX
8
Calque 1
10
57.958038
20
241.928452
70
0
0
VERTEX
8
Calque 1
10
58.187000
20
242.934689
70
0
0
VERTEX
8
Calque 1
10
58.265392
20
243.981010
70
0
0
VERTEX
8
Calque 1
10
58.129646
20
245.353019
70
0
0
VERTEX
8
Calque 1
10
57.732549
20
246.659794
70
0
0
VERTEX
8
Calque 1
10
57.089310
20
247.864614
70
0
0
VERTEX
8
Calque 1
10
56.215139
20
248.930757
70
0
0
VERTEX
8
Calque 1
10
55.148996
20
249.804928
70
0
0
VERTEX
8
Calque 1
10
53.944176
20
250.448167
70
0
0
VERTEX
8
Calque 1
10
52.637401
20
250.845264
70
0
0
VERTEX
8
Calque 1
10
51.265392
20
250.981010
70
0
0
VERTEX
8
Calque 1
10
51.265392
20
250.981010
70
0
0
SEQEND
8
Calque 1
0
POLYLINE
8
Calque 1
62
7
70
0
10
0.000000
20
0.000000
66
1
0
VERTEX
8
Calque 1
10
74.254593
20
251.729088
70
0
0
VERTEX
8
Calque 1
10
73.208272
20
251.650696
70
0
0
VERTEX
8
Calque 1
10
72.202035
20
251.421734
70
0
0
VERTEX
8
Calque 1
10
70.365601
20
250.549375
70
0
0
VERTEX
8
Calque 1
10
68.856875
20
249.186569
70
0
0
VERTEX
8
Calque 1
10
68.260271
20
248.344547
70
0
0
VERTEX
8
Calque 1
10
67.787436
20
247.407872
70
0
0
VERTEX
8
Calque 1
10
67.459451
20
246.411198
70
0
0
VERTEX
8
Calque 1
10
67.285915
20
245.393936
70
0
0
VERTEX
8
Calque 1
10
67.389096
20
243.363456
70
0
0
VERTEX
8
Calque 1
10
68.070800
20
241.448051
70
0
0
VERTEX
8
Calque 1
10
68.620416
20
240.574633
70
0
0
VERTEX
8
Calque 1
10
69.304846
20
239.779341
70
0
0
VERTEX
8
Calque 1
10
70.100138
20
239.094911
70
0
0
VERTEX
8
Calque 1
10
70.973556
20
238.545295
70
0
0
VERTEX
8
Calque 1
10
72.888961
20
237.863591
70
0
0
VERTEX
8
Calque 1
10
74.919441
20
237.760410
70
0
0
VERTEX
8
Calque 1
10
75.936703
20
237.933946
70
0
0
VERTEX
8
Calque 1
10
76.933377
20
238.261931
70
0
0
VERTEX
8
Calque 1
10
77.870052
20
238.734766
70
0
0
VERTEX
8
Calque 1
10
78.712074
20
239.331370
70
0
0
VERTEX
8
Calque 1
10
80.074880
20
240.840096
70
0
0
VERTEX
8
Calque 1
10
80.947239
20
242.676530
70
0
0
VERTEX
8
Calque 1
10
81.176201
20
243.682767
70
0
0
VERTEX
8
Calque 1
10
81.254593
20
244.729088
70
0
0
VERTEX
8
Calque 1
10
81.118847
20
246.101097
70
0
0
VERTEX
8
Calque 1
10
80.721750
20
247.407872
70
0
0
VERTEX
8
Calque 1
10
80.078511
20
248.612692
70
0
0
VERTEX
8
Calque 1
10
79.204340
20
249.678835
70
0
0
VERTEX
8
Calque 1
10
78.138197
20
250.553006
70
0
0
VERTEX
8
Calque 1
10
76.933377
20
251.196245
70
0
0
VERTEX
8
Calque 1
10
75.626602
20
251.593342
70
0
0
VERTEX
8
Calque 1
10
74.254593
20
251.729088
70
0
0
VERTEX
8
Calque 1
10
74.254593
20
251.729088
70
0
0
SEQEND
8
Calque 1
0
POLYLINE
8
Calque 1
62
7
70
0
10
0.000000
20
0.000000
66
1
0
VERTEX
8
Calque 1
10
109.072795
20
139.733568
70
0
0
VERTEX
8
Calque 1
10
95.319626
20
139.690718
70
0
0
VERTEX
8
Calque 1
10
102.158807
20
151.511685
70
0
0
VERTEX
8
Calque 1
10
109.072795
20
139.733568
70
0
0
SEQEND
8
Calque 1
0
POLYLINE
8
Calque 1
62
7
70
0
10
0.000000
20
0.000000
66
1
0
VERTEX
8
Calque 1
10
34.554295
20
186.384568
70
0
0
VERTEX
8
Calque 1
10
20.801126
20
186.341718
70
0
0
VERTEX
8
Calque 1
10
27.640307
20
198.162685
70
0
0
VERTEX
8
Calque 1
10
34.554295
20
186.384568
70
0
0
SEQEND
8
Calque 1
0
POLYLINE
8
Calque 1
62
7
70
0
10
0.000000
20
0.000000
66
1
0
VERTEX
8
Calque 1
10
58.423772
20
139.052568
70
0
0
VERTEX
8
Calque 1
10
44.670603
20
139.009718
70
0
0
VERTEX
8
Calque 1
10
51.509784
20
150.830685
70
0
0
VERTEX
8
Calque 1
10
58.423772
20
139.052568
70
0
0
SEQEND
8
Calque 1
0
POLYLINE
8
Calque 1
62
7
70
0
10
0.000000
20
0.000000
66
1
0
VERTEX
8
Calque 1
10
132.045295
20
139.630568
70
0
0
VERTEX
8
Calque 1
10
118.292126
20
139.587718
70
0
0
VERTEX
8
Calque 1
10
125.131307
20
151.408685
70
0
0
VERTEX
8
Calque 1
10
132.045295
20
139.630568
70
0
0
SEQEND
8
Calque 1
0
POLYLINE
8
Calque 1
62
7
70
0
10
0.000000
20
0.000000
66
1
0
VERTEX
8
Calque 1
10
157.023895
20
138.870568
70
0
0
VERTEX
8
Calque 1
10
143.270726
20
138.827718
70
0
0
VERTEX
8
Calque 1
10
150.109907
20
150.648685
70
0
0
VERTEX
8
Calque 1
10
157.023895
20
138.870568
70
0
0
SEQEND
8
Calque 1
0
POLYLINE
8
Calque 1
62
7
70
0
10
0.000000
20
0.000000
66
1
0
VERTEX
8
Calque 1
10
109.839595
20
161.631568
70
0
0
VERTEX
8
Calque 1
10
96.086426
20
161.588718
70
0
0
VERTEX
8
Calque 1
10
102.925607
20
173.409685
70
0
0
VERTEX
8
Calque 1
10
109.839595
20
161.631568
70
0
0
SEQEND
8
Calque 1
0
POLYLINE
8
Calque 1
62
7
70
0
10
0.000000
20
0.000000
66
1
0
VERTEX
8
Calque 1
10
34.471095
20
163.279568
70
0
0
VERTEX
8
Calque 1
10
20.717926
20
163.236718
70
0
0
VERTEX
8
Calque 1
10
27.557107
20
175.057685
70
0
0
VERTEX
8
Calque 1
10
34.471095
20
163.279568
70
0
0
SEQEND
8
Calque 1
0
POLYLINE
8
Calque 1
62
7
70
0
10
0.000000
20
0.000000
66
1
0
VERTEX
8
Calque 1
10
58.649144
20
186.973568
70
0
0
VERTEX
8
Calque 1
10
44.895975
20
186.930718
70
0
0
VERTEX
8
Calque 1
10
51.735156
20
198.751685
70
0
0
VERTEX
8
Calque 1
10
58.649144
20
186.973568
70
0
0
SEQEND
8
Calque 1
0
POLYLINE
8
Calque 1
62
7
70
0
10
0.000000
20
0.000000
66
1
0
VERTEX
8
Calque 1
10
157.051595
20
187.390568
70
0
0
VERTEX
8
Calque 1
10
143.298426
20
187.347718
70
0
0
VERTEX
8
Calque 1
10
150.137607
20
199.168685
70
0
0
VERTEX
8
Calque 1
10
157.051595
20
187.390568
70
0
0
SEQEND
8
Calque 1
0
POLYLINE
8
Calque 1
62
7
70
0
10
0.000000
20
0.000000
66
1
0
VERTEX
8
Calque 1
10
157.436495
20
162.377568
70
0
0
VERTEX
8
Calque 1
10
143.683326
20
162.334718
70
0
0
VERTEX
8
Calque 1
10
150.522507
20
174.155685
70
0
0
VERTEX
8
Calque 1
10
157.436495
20
162.377568
70
0
0
SEQEND
8
Calque 1
0
POLYLINE
8
Calque 1
62
7
70
0
10
0.000000
20
0.000000
66
1
0
VERTEX
8
Calque 1
10
133.253295
20
162.157568
70
0
0
VERTEX
8
Calque 1
10
119.500126
20
162.114718
70
0
0
VERTEX
8
Calque 1
10
126.339307
20
173.935685
70
0
0
VERTEX
8
Calque 1
10
133.253295
20
162.157568
70
0
0
SEQEND
8
Calque 1
0
POLYLINE
8
Calque 1
62
7
70
0
10
0.000000
20
0.000000
66
1
0
VERTEX
8
Calque 1
10
133.182195
20
187.229568
70
0
0
VERTEX
8
Calque 1
10
119.429026
20
187.186718
70
0
0
VERTEX
8
Calque 1
10
126.268207
20
199.007685
70
0
0
VERTEX
8
Calque 1
10
133.182195
20
187.229568
70
0
0
SEQEND
8
Calque 1
0
POLYLINE
8
Calque 1
62
7
70
0
10
0.000000
20
0.000000
66
1
0
VERTEX
8
Calque 1
10
109.469095
20
187.307568
70
0
0
VERTEX
8
Calque 1
10
95.715926
20
187.264718
70
0
0
VERTEX
8
Calque 1
10
102.555107
20
199.085685
70
0
0
VERTEX
8
Calque 1
10
109.469095
20
187.307568
70
0
0
SEQEND
8
Calque 1
0
POLYLINE
8
Calque 1
62
7
70
0
10
0.000000
20
0.000000
66
1
0
VERTEX
8
Calque 1
10
58.326587
20
163.271568
70
0
0
VERTEX
8
Calque 1
10
44.573418
20
163.228718
70
0
0
VERTEX
8
Calque 1
10
51.412599
20
175.049685
70
0
0
VERTEX
8
Calque 1
10
58.326587
20
163.271568
70
0
0
SEQEND
8
Calque 1
0
POLYLINE
8
Calque 1
62
7
70
0
10
0.000000
20
0.000000
66
1
0
VERTEX
8
Calque 1
10
82.235995
20
187.368568
70
0
0
VERTEX
8
Calque 1
10
68.482826
20
187.325718
70
0
0
VERTEX
8
Calque 1
10
75.322007
20
199.146685
70
0
0
VERTEX
8
Calque 1
10
82.235995
20
187.368568
70
0
0
SEQEND
8
Calque 1
0
POLYLINE
8
Calque 1
62
7
70
1
10
0.000000
20
0.000000
66
1
0
VERTEX
8
Calque 1
10
34.156357
20
117.322122
70
0
0
VERTEX
8
Calque 1
10
30.688064
20
111.380551
70
0
0
VERTEX
8
Calque 1
10
23.751478
20
111.380551
70
0
0
VERTEX
8
Calque 1
10
20.283184
20
117.322122
70
0
0
VERTEX
8
Calque 1
10
23.751478
20
123.263682
70
0
0
VERTEX
8
Calque 1
10
30.688064
20
123.263682
70
0
0
VERTEX
8
Calque 1
10
34.156357
20
117.322122
70
0
0
SEQEND
8
Calque 1
0
POLYLINE
8
Calque 1
62
7
70
1
10
0.000000
20
0.000000
66
1
0
VERTEX
8
Calque 1
10
58.469687
20
117.234122
70
0
0
VERTEX
8
Calque 1
10
55.001394
20
111.292551
70
0
0
VERTEX
8
Calque 1
10
48.064808
20
111.292551
70
0
0
VERTEX
8
Calque 1
10
44.596514
20
117.234122
70
0
0
VERTEX
8
Calque 1
10
48.064808
20
123.175682
70
0
0
VERTEX
8
Calque 1
10
55.001394
20
123.175682
70
0
0
VERTEX
8
Calque 1
10
58.469687
20
117.234122
70
0
0
SEQEND
8
Calque 1
0
POLYLINE
8
Calque 1
62
7
70
1
10
0.000000
20
0.000000
66
1
0
VERTEX
8
Calque 1
10
81.988057
20
116.873122
70
0
0
VERTEX
8
Calque 1
10
78.519764
20
110.931551
70
0
0
VERTEX
8
Calque 1
10
71.583178
20
110.931551
70
0
0
VERTEX
8
Calque 1
10
68.114884
20
116.873122
70
0
0
VERTEX
8
Calque 1
10
71.583178
20
122.814682
70
0
0
VERTEX
8
Calque 1
10
78.519764
20
122.814682
70
0
0
VERTEX
8
Calque 1
10
81.988057
20
116.873122
70
0
0
SEQEND
8
Calque 1
0
POLYLINE
8
Calque 1
62
7
70
1
10
0.000000
20
0.000000
66
1
0
VERTEX
8
Calque 1
10
82.329157
20
92.900122
70
0
0
VERTEX
8
Calque 1
10
78.860864
20
86.958551
70
0
0
VERTEX
8
Calque 1
10
71.924278
20
86.958551
70
0
0
VERTEX
8
Calque 1
10
68.455984
20
92.900122
70
0
0
VERTEX
8
Calque 1
10
71.924278
20
98.841682
70
0
0
VERTEX
8
Calque 1
10
78.860864
20
98.841682
70
0
0
VERTEX
8
Calque 1
10
82.329157
20
92.900122
70
0
0
SEQEND
8
Calque 1
0
POLYLINE
8
Calque 1
62
7
70
1
10
0.000000
20
0.000000
66
1
0
VERTEX
8
Calque 1
10
58.261507
20
93.916122
70
0
0
VERTEX
8
Calque 1
10
54.793214
20
87.974551
70
0
0
VERTEX
8
Calque 1
10
47.856628
20
87.974551
70
0
0
VERTEX
8
Calque 1
10
44.388334
20
93.916122
70
0
0
VERTEX
8
Calque 1
10
47.856628
20
99.857682
70
0
0
VERTEX
8
Calque 1
10
54.793214
20
99.857682
70
0
0
VERTEX
8
Calque 1
10
58.261507
20
93.916122
70
0
0
SEQEND
8
Calque 1
0
POLYLINE
8
Calque 1
62
7
70
1
10
0.000000
20
0.000000
66
1
0
VERTEX
8
Calque 1
10
34.119957
20
93.419122
70
0
0
VERTEX
8
Calque 1
10
30.651664
20
87.477551
70
0
0
VERTEX
8
Calque 1
10
23.715078
20
87.477551
70
0
0
VERTEX
8
Calque 1
10
20.246784
20
93.419122
70
0
0
VERTEX
8
Calque 1
10
23.715078
20
99.360682
70
0
0
VERTEX
8
Calque 1
10
30.651664
20
99.360682
70
0
0
VERTEX
8
Calque 1
10
34.119957
20
93.419122
70
0
0
SEQEND
8
Calque 1
0
POLYLINE
8
Calque 1
62
7
70
1
10
0.000000
20
0.000000
66
1
0
VERTEX
8
Calque 1
10
34.806257
20
69.066122
70
0
0
VERTEX
8
Calque 1
10
31.337964
20
63.124551
70
0
0
VERTEX
8
Calque 1
10
24.401378
20
63.124551
70
0
0
VERTEX
8
Calque 1
10
20.933084
20
69.066122
70
0
0
VERTEX
8
Calque 1
10
24.401378
20
75.007682
70
0
0
VERTEX
8
Calque 1
10
31.337964
20
75.007682
70
0
0
VERTEX
8
Calque 1
10
34.806257
20
69.066122
70
0
0
SEQEND
8
Calque 1
0
POLYLINE
8
Calque 1
62
7
70
1
10
0.000000
20
0.000000
66
1
0
VERTEX
8
Calque 1
10
58.567727
20
69.134122
70
0
0
VERTEX
8
Calque 1
10
55.099434
20
63.192551
70
0
0
VERTEX
8
Calque 1
10
48.162848
20
63.192551
70
0
0
VERTEX
8
Calque 1
10
44.694554
20
69.134122
70
0
0
VERTEX
8
Calque 1
10
48.162848
20
75.075682
70
0
0
VERTEX
8
Calque 1
10
55.099434
20
75.075682
70
0
0
VERTEX
8
Calque 1
10
58.567727
20
69.134122
70
0
0
SEQEND
8
Calque 1
0
POLYLINE
8
Calque 1
62
7
70
1
10
0.000000
20
0.000000
66
1
0
VERTEX
8
Calque 1
10
83.083957
20
69.583122
70
0
0
VERTEX
8
Calque 1
10
79.615664
20
63.641551
70
0
0
VERTEX
8
Calque 1
10
72.679078
20
63.641551
70
0
0
VERTEX
8
Calque 1
10
69.210784
20
69.583122
70
0
0
VERTEX
8
Calque 1
10
72.679078
20
75.524682
70
0
0
VERTEX
8
Calque 1
10
79.615664
20
75.524682
70
0
0
VERTEX
8
Calque 1
10
83.083957
20
69.583122
70
0
0
SEQEND
8
Calque 1
0
POLYLINE
8
Calque 1
62
7
70
1
10
0.000000
20
0.000000
66
1
0
VERTEX
8
Calque 1
10
108.693657
20
117.267122
70
0
0
VERTEX
8
Calque 1
10
105.225364
20
111.325551
70
0
0
VERTEX
8
Calque 1
10
98.288778
20
111.325551
70
0
0
VERTEX
8
Calque 1
10
94.820484
20
117.267122
70
0
0
VERTEX
8
Calque 1
10
98.288778
20
123.208682
70
0
0
VERTEX
8
Calque 1
10
105.225364
20
123.208682
70
0
0
VERTEX
8
Calque 1
10
108.693657
20
117.267122
70
0
0
SEQEND
8
Calque 1
0
POLYLINE
8
Calque 1
62
7
70
1
10
0.000000
20
0.000000
66
1
0
VERTEX
8
Calque 1
10
133.006957
20
117.180122
70
0
0
VERTEX
8
Calque 1
10
129.538664
20
111.238551
70
0
0
VERTEX
8
Calque 1
10
122.602078
20
111.238551
70
0
0
VERTEX
8
Calque 1
10
119.133784
20
117.180122
70
0
0
VERTEX
8
Calque 1
10
122.602078
20
123.121682
70
0
0
VERTEX
8
Calque 1
10
129.538664
20
123.121682
70
0
0
VERTEX
8
Calque 1
10
133.006957
20
117.180122
70
0
0
SEQEND
8
Calque 1
0
POLYLINE
8
Calque 1
62
7
70
1
10
0.000000
20
0.000000
66
1
0
VERTEX
8
Calque 1
10
156.525457
20
116.818122
70
0
0
VERTEX
8
Calque 1
10
153.057164
20
110.876551
70
0
0
VERTEX
8
Calque 1
10
146.120578
20
110.876551
70
0
0
VERTEX
8
Calque 1
10
142.652284
20
116.818122
70
0
0
VERTEX
8
Calque 1
10
146.120578
20
122.759682
70
0
0
VERTEX
8
Calque 1
10
153.057164
20
122.759682
70
0
0
VERTEX
8
Calque 1
10
156.525457
20
116.818122
70
0
0
SEQEND
8
Calque 1
0
POLYLINE
8
Calque 1
62
7
70
1
10
0.000000
20
0.000000
66
1
0
VERTEX
8
Calque 1
10
156.866457
20
92.845122
70
0
0
VERTEX
8
Calque 1
10
153.398164
20
86.903551
70
0
0
VERTEX
8
Calque 1
10
146.461578
20
86.903551
70
0
0
VERTEX
8
Calque 1
10
142.993284
20
92.845122
70
0
0
VERTEX
8
Calque 1
10
146.461578
20
98.786682
70
0
0
VERTEX
8
Calque 1
10
153.398164
20
98.786682
70
0
0
VERTEX
8
Calque 1
10
156.866457
20
92.845122
70
0
0
SEQEND
8
Calque 1
0
POLYLINE
8
Calque 1
62
7
70
1
10
0.000000
20
0.000000
66
1
0
VERTEX
8
Calque 1
10
132.798857
20
93.861122
70
0
0
VERTEX
8
Calque 1
10
129.330564
20
87.919551
70
0
0
VERTEX
8
Calque 1
10
122.393978
20
87.919551
70
0
0
VERTEX
8
Calque 1
10
118.925684
20
93.861122
70
0
0
VERTEX
8
Calque 1
10
122.393978
20
99.802682
70
0
0
VERTEX
8
Calque 1
10
129.330564
20
99.802682
70
0
0
VERTEX
8
Calque 1
10
132.798857
20
93.861122
70
0
0
SEQEND
8
Calque 1
0
POLYLINE
8
Calque 1
62
7
70
1
10
0.000000
20
0.000000
66
1
0
VERTEX
8
Calque 1
10
108.657257
20
93.364122
70
0
0
VERTEX
8
Calque 1
10
105.188964
20
87.422551
70
0
0
VERTEX
8
Calque 1
10
98.252378
20
87.422551
70
0
0
VERTEX
8
Calque 1
10
94.784084
20
93.364122
70
0
0
VERTEX
8
Calque 1
10
98.252378
20
99.305682
70
0
0
VERTEX
8
Calque 1
10
105.188964
20
99.305682
70
0
0
VERTEX
8
Calque 1
10
108.657257
20
93.364122
70
0
0
SEQEND
8
Calque 1
0
POLYLINE
8
Calque 1
62
7
70
1
10
0.000000
20
0.000000
66
1
0
VERTEX
8
Calque 1
10
109.343557
20
69.011122
70
0
0
VERTEX
8
Calque 1
10
105.875264
20
63.069551
70
0
0
VERTEX
8
Calque 1
10
98.938678
20
63.069551
70
0
0
VERTEX
8
Calque 1
10
95.470384
20
69.011122
70
0
0
VERTEX
8
Calque 1
10
98.938678
20
74.952682
70
0
0
VERTEX
8
Calque 1
10
105.875264
20
74.952682
70
0
0
VERTEX
8
Calque 1
10
109.343557
20
69.011122
70
0
0
SEQEND
8
Calque 1
0
POLYLINE
8
Calque 1
62
7
70
1
10
0.000000
20
0.000000
66
1
0
VERTEX
8
Calque 1
10
133.105057
20
69.079122
70
0
0
VERTEX
8
Calque 1
10
129.636764
20
63.137551
70
0
0
VERTEX
8
Calque 1
10
122.700178
20
63.137551
70
0
0
VERTEX
8
Calque 1
10
119.231884
20
69.079122
70
0
0
VERTEX
8
Calque 1
10
122.700178
20
75.020682
70
0
0
VERTEX
8
Calque 1
10
129.636764
20
75.020682
70
0
0
VERTEX
8
Calque 1
10
133.105057
20
69.079122
70
0
0
SEQEND
8
Calque 1
0
POLYLINE
8
Calque 1
62
7
70
1
10
0.000000
20
0.000000
66
1
0
VERTEX
8
Calque 1
10
157.621457
20
69.528122
70
0
0
VERTEX
8
Calque 1
10
154.153164
20
63.586551
70
0
0
VERTEX
8
Calque 1
10
147.216578
20
63.586551
70
0
0
VERTEX
8
Calque 1
10
143.748284
20
69.528122
70
0
0
VERTEX
8
Calque 1
10
147.216578
20
75.469682
70
0
0
VERTEX
8
Calque 1
10
154.153164
20
75.469682
70
0
0
VERTEX
8
Calque 1
10
157.621457
20
69.528122
70
0
0
SEQEND
8
Calque 1
0
POLYLINE
8
Calque 1
62
7
70
0
10
0.000000
20
0.000000
66
1
0
VERTEX
8
Calque 1
10
27.017315
20
274.914640
70
0
0
VERTEX
8
Calque 1
10
25.970994
20
274.836248
70
0
0
VERTEX
8
Calque 1
10
24.964757
20
274.607286
70
0
0
VERTEX
8
Calque 1
10
23.128323
20
273.734927
70
0
0
VERTEX
8
Calque 1
10
21.619597
20
272.372121
70
0
0
VERTEX
8
Calque 1
10
21.022993
20
271.530099
70
0
0
VERTEX
8
Calque 1
10
20.550158
20
270.593424
70
0
0
VERTEX
8
Calque 1
10
20.222173
20
269.596750
70
0
0
VERTEX
8
Calque 1
10
20.048637
20
268.579488
70
0
0
VERTEX
8
Calque 1
10
20.151818
20
266.549008
70
0
0
VERTEX
8
Calque 1
10
20.833522
20
264.633603
70
0
0
VERTEX
8
Calque 1
10
21.383138
20
263.760185
70
0
0
VERTEX
8
Calque 1
10
22.067568
20
262.964893
70
0
0
VERTEX
8
Calque 1
10
22.862860
20
262.280463
70
0
0
VERTEX
8
Calque 1
10
23.736278
20
261.730847
70
0
0
VERTEX
8
Calque 1
10
25.651683
20
261.049143
70
0
0
VERTEX
8
Calque 1
10
27.682163
20
260.945962
70
0
0
VERTEX
8
Calque 1
10
28.699425
20
261.119498
70
0
0
VERTEX
8
Calque 1
10
29.696099
20
261.447483
70
0
0
VERTEX
8
Calque 1
10
30.632774
20
261.920318
70
0
0
VERTEX
8
Calque 1
10
31.474796
20
262.516922
70
0
0
VERTEX
8
Calque 1
10
32.837602
20
264.025648
70
0
0
VERTEX
8
Calque 1
10
33.709961
20
265.862082
70
0
0
VERTEX
8
Calque 1
10
33.938923
20
266.868319
70
0
0
VERTEX
8
Calque 1
10
34.017315
20
267.914640
70
0
0
VERTEX
8
Calque 1
10
33.881569
20
269.286649
70
0
0
VERTEX
8
Calque 1
10
33.484472
20
270.593424
70
0
0
VERTEX
8
Calque 1
10
32.841233
20
271.798244
70
0
0
VERTEX
8
Calque 1
10
31.967062
20
272.864387
70
0
0
VERTEX
8
Calque 1
10
30.900919
20
273.738558
70
0
0
VERTEX
8
Calque 1
10
29.696099
20
274.381797
70
0
0
VERTEX
8
Calque 1
10
28.389324
20
274.778894
70
0
0
VERTEX
8
Calque 1
10
27.017315
20
274.914640
70
0
0
VERTEX
8
Calque 1
10
27.017315
20
274.914640
70
0
0
SEQEND
8
Calque 1
0
POLYLINE
8
Calque 1
62
7
70
0
10
0.000000
20
0.000000
66
1
0
VERTEX
8
Calque 1
10
51.419857
20
274.794851
70
0
0
VERTEX
8
Calque 1
10
50.373536
20
274.716459
70
0
0
VERTEX
8
Calque 1
10
49.367299
20
274.487497
70
0
0
VERTEX
8
Calque 1
10
47.530865
20
273.615138
70
0
0
VERTEX
8
Calque 1
10
46.022139
20
272.252332
70
0
0
VERTEX
8
Calque 1
10
45.425535
20
271.410310
70
0
0
VERTEX
8
Calque 1
10
44.952700
20
270.473635
70
0
0
VERTEX
8
Calque 1
10
44.624715
20
269.476961
70
0
0
VERTEX
8
Calque 1
10
44.451179
20
268.459699
70
0
0
VERTEX
8
Calque 1
10
44.554360
20
266.429219
70
0
0
VERTEX
8
Calque 1
10
45.236064
20
264.513814
70
0
0
VERTEX
8
Calque 1
10
45.785680
20
263.640396
70
0
0
VERTEX
8
Calque 1
10
46.470110
20
262.845104
70
0
0
VERTEX
8
Calque 1
10
47.265402
20
262.160674
70
0
0
VERTEX
8
Calque 1
10
48.138820
20
261.611058
70
0
0
VERTEX
8
Calque 1
10
50.054225
20
260.929354
70
0
0
VERTEX
8
Calque 1
10
52.084705
20
260.826173
70
0
0
VERTEX
8
Calque 1
10
53.101967
20
260.999709
70
0
0
VERTEX
8
Calque 1
10
54.098641
20
261.327694
70
0
0
VERTEX
8
Calque 1
10
55.035316
20
261.800529
70
0
0
VERTEX
8
Calque 1
10
55.877338
20
262.397133
70
0
0
VERTEX
8
Calque 1
10
57.240144
20
263.905859
70
0
0
VERTEX
8
Calque 1
10
58.112503
20
265.742293
70
0
0
VERTEX
8
Calque 1
10
58.341465
20
266.748530
70
0
0
VERTEX
8
Calque 1
10
58.419857
20
267.794851
70
0
0
VERTEX
8
Calque 1
10
58.284111
20
269.166860
70
0
0
VERTEX
8
Calque 1
10
57.887014
20
270.473635
70
0
0
VERTEX
8
Calque 1
10
57.243775
20
271.678455
70
0
0
VERTEX
8
Calque 1
10
56.369604
20
272.744598
70
0
0
VERTEX
8
Calque 1
10
55.303461
20
273.618769
70
0
0
VERTEX
8
Calque 1
10
54.098641
20
274.262008
70
0
0
VERTEX
8
Calque 1
10
52.791866
20
274.659105
70
0
0
VERTEX
8
Calque 1
10
51.419857
20
274.794851
70
0
0
VERTEX
8
Calque 1
10
51.419857
20
274.794851
70
0
0
SEQEND
8
Calque 1
0
POLYLINE
8
Calque 1
62
7
70
0
10
0.000000
20
0.000000
66
1
0
VERTEX
8
Calque 1
10
74.409058
20
275.542929
70
0
0
VERTEX
8
Calque 1
10
73.362737
20
275.464537
70
0
0
VERTEX
8
Calque 1
10
72.356500
20
275.235575
70
0
0
VERTEX
8
Calque 1
10
70.520066
20
274.363216
70
0
0
VERTEX
8
Calque 1
10
69.011340
20
273.000410
70
0
0
VERTEX
8
Calque 1
10
68.414736
20
272.158388
70
0
0
VERTEX
8
Calque 1
10
67.941901
20
271.221713
70
0
0
VERTEX
8
Calque 1
10
67.613916
20
270.225039
70
0
0
VERTEX
8
Calque 1
10
67.440380
20
269.207777
70
0
0
VERTEX
8
Calque 1
10
67.543561
20
267.177297
70
0
0
VERTEX
8
Calque 1
10
68.225265
20
265.261892
70
0
0
VERTEX
8
Calque 1
10
68.774881
20
264.388474
70
0
0
VERTEX
8
Calque 1
10
69.459311
20
263.593182
70
0
0
VERTEX
8
Calque 1
10
70.254603
20
262.908752
70
0
0
VERTEX
8
Calque 1
10
71.128021
20
262.359136
70
0
0
VERTEX
8
Calque 1
10
73.043426
20
261.677432
70
0
0
VERTEX
8
Calque 1
10
75.073906
20
261.574251
70
0
0
VERTEX
8
Calque 1
10
76.091168
20
261.747787
70
0
0
VERTEX
8
Calque 1
10
77.087842
20
262.075772
70
0
0
VERTEX
8
Calque 1
10
78.024517
20
262.548607
70
0
0
VERTEX
8
Calque 1
10
78.866539
20
263.145211
70
0
0
VERTEX
8
Calque 1
10
80.229345
20
264.653937
70
0
0
VERTEX
8
Calque 1
10
81.101704
20
266.490371
70
0
0
VERTEX
8
Calque 1
10
81.330666
20
267.496608
70
0
0
VERTEX
8
Calque 1
10
81.409058
20
268.542929
70
0
0
VERTEX
8
Calque 1
10
81.273312
20
269.914938
70
0
0
VERTEX
8
Calque 1
10
80.876215
20
271.221713
70
0
0
VERTEX
8
Calque 1
10
80.232976
20
272.426533
70
0
0
VERTEX
8
Calque 1
10
79.358805
20
273.492676
70
0
0
VERTEX
8
Calque 1
10
78.292662
20
274.366847
70
0
0
VERTEX
8
Calque 1
10
77.087842
20
275.010086
70
0
0
VERTEX
8
Calque 1
10
75.781067
20
275.407183
70
0
0
VERTEX
8
Calque 1
10
74.409058
20
275.542929
70
0
0
VERTEX
8
Calque 1
10
74.409058
20
275.542929
70
0
0
SEQEND
8
Calque 1
0
POLYLINE
8
Calque 1
62
7
70
0
10
0.000000
20
0.000000
66
1
0
VERTEX
8
Calque 1
10
102.547130
20
275.842686
70
0
0
VERTEX
8
Calque 1
10
101.500809
20
275.764294
70
0
0
VERTEX
8
Calque 1
10
100.494572
20
275.535332
70
0
0
VERTEX
8
Calque 1
10
98.658138
20
274.662973
70
0
0
VERTEX
8
Calque 1
10
97.149412
20
273.300167
70
0
0
VERTEX
8
Calque 1
10
96.552808
20
272.458145
70
0
0
VERTEX
8
Calque 1
10
96.079973
20
271.521470
70
0
0
VERTEX
8
Calque 1
10
95.751988
20
270.524796
70
0
0
VERTEX
8
Calque 1
10
95.578452
20
269.507534
70
0
0
VERTEX
8
Calque 1
10
95.681633
20
267.477054
70
0
0
VERTEX
8
Calque 1
10
96.363337
20
265.561649
70
0
0
VERTEX
8
Calque 1
10
96.912953
20
264.688231
70
0
0
VERTEX
8
Calque 1
10
97.597383
20
263.892939
70
0
0
VERTEX
8
Calque 1
10
98.392675
20
263.208509
70
0
0
VERTEX
8
Calque 1
10
99.266093
20
262.658893
70
0
0
VERTEX
8
Calque 1
10
101.181498
20
261.977189
70
0
0
VERTEX
8
Calque 1
10
103.211978
20
261.874008
70
0
0
VERTEX
8
Calque 1
10
104.229240
20
262.047544
70
0
0
VERTEX
8
Calque 1
10
105.225914
20
262.375529
70
0
0
VERTEX
8
Calque 1
10
106.162589
20
262.848364
70
0
0
VERTEX
8
Calque 1
10
107.004611
20
263.444968
70
0
0
VERTEX
8
Calque 1
10
108.367417
20
264.953694
70
0
0
VERTEX
8
Calque 1
10
109.239776
20
266.790128
70
0
0
VERTEX
8
Calque 1
10
109.468738
20
267.796365
70
0
0
VERTEX
8
Calque 1
10
109.547130
20
268.842686
70
0
0
VERTEX
8
Calque 1
10
109.411384
20
270.214695
70
0
0
VERTEX
8
Calque 1
10
109.014287
20
271.521470
70
0
0
VERTEX
8
Calque 1
10
108.371048
20
272.726290
70
0
0
VERTEX
8
Calque 1
10
107.496877
20
273.792433
70
0
0
VERTEX
8
Calque 1
10
106.430734
20
274.666604
70
0
0
VERTEX
8
Calque 1
10
105.225914
20
275.309843
70
0
0
VERTEX
8
Calque 1
10
103.919139
20
275.706940
70
0
0
VERTEX
8
Calque 1
10
102.547130
20
275.842686
70
0
0
VERTEX
8
Calque 1
10
102.547130
20
275.842686
70
0
0
SEQEND
8
Calque 1
0
POLYLINE
8
Calque 1
62
7
70
0
10
0.000000
20
0.000000
66
1
0
VERTEX
8
Calque 1
10
126.949670
20
275.722897
70
0
0
VERTEX
8
Calque 1
10
125.903349
20
275.644505
70
0
0
VERTEX
8
Calque 1
10
124.897112
20
275.415543
70
0
0
VERTEX
8
Calque 1
10
123.060678
20
274.543184
70
0
0
VERTEX
8
Calque 1
10
121.551952
20
273.180378
70
0
0
VERTEX
8
Calque 1
10
120.955348
20
272.338356
70
0
0
VERTEX
8
Calque 1
10
120.482513
20
271.401681
70
0
0
VERTEX
8
Calque 1
10
120.154528
20
270.405007
70
0
0
VERTEX
8
Calque 1
10
119.980992
20
269.387745
70
0
0
VERTEX
8
Calque 1
10
120.084173
20
267.357265
70
0
0
VERTEX
8
Calque 1
10
120.765877
20
265.441860
70
0
0
VERTEX
8
Calque 1
10
121.315493
20
264.568442
70
0
0
VERTEX
8
Calque 1
10
121.999923
20
263.773150
70
0
0
VERTEX
8
Calque 1
10
122.795215
20
263.088720
70
0
0
VERTEX
8
Calque 1
10
123.668633
20
262.539104
70
0
0
VERTEX
8
Calque 1
10
125.584038
20
261.857400
70
0
0
VERTEX
8
Calque 1
10
127.614518
20
261.754219
70
0
0
VERTEX
8
Calque 1
10
128.631780
20
261.927755
70
0
0
VERTEX
8
Calque 1
10
129.628454
20
262.255740
70
0
0
VERTEX
8
Calque 1
10
130.565129
20
262.728575
70
0
0
VERTEX
8
Calque 1
10
131.407151
20
263.325179
70
0
0
VERTEX
8
Calque 1
10
132.769957
20
264.833905
70
0
0
VERTEX
8
Calque 1
10
133.642316
20
266.670339
70
0
0
VERTEX
8
Calque 1
10
133.871278
20
267.676576
70
0
0
VERTEX
8
Calque 1
10
133.949670
20
268.722897
70
0
0
VERTEX
8
Calque 1
10
133.813924
20
270.094906
70
0
0
VERTEX
8
Calque 1
10
133.416827
20
271.401681
70
0
0
VERTEX
8
Calque 1
10
132.773588
20
272.606501
70
0
0
VERTEX
8
Calque 1
10
131.899417
20
273.672644
70
0
0
VERTEX
8
Calque 1
10
130.833274
20
274.546815
70
0
0
VERTEX
8
Calque 1
10
129.628454
20
275.190054
70
0
0
VERTEX
8
Calque 1
10
128.321679
20
275.587151
70
0
0
VERTEX
8
Calque 1
10
126.949670
20
275.722897
70
0
0
VERTEX
8
Calque 1
10
126.949670
20
275.722897
70
0
0
SEQEND
8
Calque 1
0
POLYLINE
8
Calque 1
62
7
70
0
10
0.000000
20
0.000000
66
1
0
VERTEX
8
Calque 1
10
149.938860
20
276.470974
70
0
0
VERTEX
8
Calque 1
10
148.892539
20
276.392582
70
0
0
VERTEX
8
Calque 1
10
147.886302
20
276.163620
70
0
0
VERTEX
8
Calque 1
10
146.049868
20
275.291261
70
0
0
VERTEX
8
Calque 1
10
144.541142
20
273.928455
70
0
0
VERTEX
8
Calque 1
10
143.944538
20
273.086433
70
0
0
VERTEX
8
Calque 1
10
143.471703
20
272.149758
70
0
0
VERTEX
8
Calque 1
10
143.143718
20
271.153084
70
0
0
VERTEX
8
Calque 1
10
142.970182
20
270.135822
70
0
0
VERTEX
8
Calque 1
10
143.073363
20
268.105342
70
0
0
VERTEX
8
Calque 1
10
143.755067
20
266.189937
70
0
0
VERTEX
8
Calque 1
10
144.304683
20
265.316519
70
0
0
VERTEX
8
Calque 1
10
144.989113
20
264.521227
70
0
0
VERTEX
8
Calque 1
10
145.784405
20
263.836797
70
0
0
VERTEX
8
Calque 1
10
146.657823
20
263.287181
70
0
0
VERTEX
8
Calque 1
10
148.573228
20
262.605477
70
0
0
VERTEX
8
Calque 1
10
150.603708
20
262.502296
70
0
0
VERTEX
8
Calque 1
10
151.620970
20
262.675832
70
0
0
VERTEX
8
Calque 1
10
152.617644
20
263.003817
70
0
0
VERTEX
8
Calque 1
10
153.554319
20
263.476652
70
0
0
VERTEX
8
Calque 1
10
154.396341
20
264.073256
70
0
0
VERTEX
8
Calque 1
10
155.759147
20
265.581982
70
0
0
VERTEX
8
Calque 1
10
156.631506
20
267.418416
70
0
0
VERTEX
8
Calque 1
10
156.860468
20
268.424653
70
0
0
VERTEX
8
Calque 1
10
156.938860
20
269.470974
70
0
0
VERTEX
8
Calque 1
10
156.803114
20
270.842983
70
0
0
VERTEX
8
Calque 1
10
156.406017
20
272.149758
70
0
0
VERTEX
8
Calque 1
10
155.762778
20
273.354578
70
0
0
VERTEX
8
Calque 1
10
154.888607
20
274.420721
70
0
0
VERTEX
8
Calque 1
10
153.822464
20
275.294892
70
0
0
VERTEX
8
Calque 1
10
152.617644
20
275.938131
70
0
0
VERTEX
8
Calque 1
10
151.310869
20
276.335228
70
0
0
VERTEX
8
Calque 1
10
149.938860
20
276.470974
70
0
0
VERTEX
8
Calque 1
10
149.938860
20
276.470974
70
0
0
SEQEND
8
Calque 1
0
POLYLINE
8
Calque 1
62
7
70
0
10
0.000000
20
0.000000
66
1
0
VERTEX
8
Calque 1
10
102.340290
20
251.133022
70
0
0
VERTEX
8
Calque 1
10
101.293969
20
251.054630
70
0
0
VERTEX
8
Calque 1
10
100.287732
20
250.825668
70
0
0
VERTEX
8
Calque 1
10
98.451298
20
249.953309
70
0
0
VERTEX
8
Calque 1
10
96.942572
20
248.590503
70
0
0
VERTEX
8
Calque 1
10
96.345968
20
247.748481
70
0
0
VERTEX
8
Calque 1
10
95.873133
20
246.811806
70
0
0
VERTEX
8
Calque 1
10
95.545148
20
245.815132
70
0
0
VERTEX
8
Calque 1
10
95.371612
20
244.797870
70
0
0
VERTEX
8
Calque 1
10
95.474793
20
242.767390
70
0
0
VERTEX
8
Calque 1
10
96.156497
20
240.851985
70
0
0
VERTEX
8
Calque 1
10
96.706113
20
239.978567
70
0
0
VERTEX
8
Calque 1
10
97.390543
20
239.183275
70
0
0
VERTEX
8
Calque 1
10
98.185835
20
238.498845
70
0
0
VERTEX
8
Calque 1
10
99.059253
20
237.949229
70
0
0
VERTEX
8
Calque 1
10
100.974658
20
237.267525
70
0
0
VERTEX
8
Calque 1
10
103.005138
20
237.164344
70
0
0
VERTEX
8
Calque 1
10
104.022400
20
237.337880
70
0
0
VERTEX
8
Calque 1
10
105.019074
20
237.665865
70
0
0
VERTEX
8
Calque 1
10
105.955749
20
238.138700
70
0
0
VERTEX
8
Calque 1
10
106.797771
20
238.735304
70
0
0
VERTEX
8
Calque 1
10
108.160577
20
240.244030
70
0
0
VERTEX
8
Calque 1
10
109.032936
20
242.080464
70
0
0
VERTEX
8
Calque 1
10
109.261898
20
243.086701
70
0
0
VERTEX
8
Calque 1
10
109.340290
20
244.133022
70
0
0
VERTEX
8
Calque 1
10
109.204544
20
245.505031
70
0
0
VERTEX
8
Calque 1
10
108.807447
20
246.811806
70
0
0
VERTEX
8
Calque 1
10
108.164208
20
248.016626
70
0
0
VERTEX
8
Calque 1
10
107.290037
20
249.082769
70
0
0
VERTEX
8
Calque 1
10
106.223894
20
249.956940
70
0
0
VERTEX
8
Calque 1
10
105.019074
20
250.600179
70
0
0
VERTEX
8
Calque 1
10
103.712299
20
250.997276
70
0
0
VERTEX
8
Calque 1
10
102.340290
20
251.133022
70
0
0
VERTEX
8
Calque 1
10
102.340290
20
251.133022
70
0
0
SEQEND
8
Calque 1
0
POLYLINE
8
Calque 1
62
7
70
0
10
0.000000
20
0.000000
66
1
0
VERTEX
8
Calque 1
10
126.742830
20
251.013233
70
0
0
VERTEX
8
Calque 1
10
125.696509
20
250.934841
70
0
0
VERTEX
8
Calque 1
10
124.690272
20
250.705879
70
0
0
VERTEX
8
Calque 1
10
122.853838
20
249.833520
70
0
0
VERTEX
8
Calque 1
10
121.345112
20
248.470714
70
0
0
VERTEX
8
Calque 1
10
120.748508
20
247.628692
70
0
0
VERTEX
8
Calque 1
10
120.275673
20
246.692017
70
0
0
VERTEX
8
Calque 1
10
119.947688
20
245.695343
70
0
0
VERTEX
8
Calque 1
10
119.774152
20
244.678081
70
0
0
VERTEX
8
Calque 1
10
119.877333
20
242.647601
70
0
0
VERTEX
8
Calque 1
10
120.559037
20
240.732196
70
0
0
VERTEX
8
Calque 1
10
121.108653
20
239.858778
70
0
0
VERTEX
8
Calque 1
10
121.793083
20
239.063486
70
0
0
VERTEX
8
Calque 1
10
122.588375
20
238.379056
70
0
0
VERTEX
8
Calque 1
10
123.461793
20
237.829440
70
0
0
VERTEX
8
Calque 1
10
125.377198
20
237.147736
70
0
0
VERTEX
8
Calque 1
10
127.407678
20
237.044555
70
0
0
VERTEX
8
Calque 1
10
128.424940
20
237.218091
70
0
0
VERTEX
8
Calque 1
10
129.421614
20
237.546076
70
0
0
VERTEX
8
Calque 1
10
130.358289
20
238.018911
70
0
0
VERTEX
8
Calque 1
10
131.200311
20
238.615515
70
0
0
VERTEX
8
Calque 1
10
132.563117
20
240.124241
70
0
0
VERTEX
8
Calque 1
10
133.435476
20
241.960675
70
0
0
VERTEX
8
Calque 1
10
133.664438
20
242.966912
70
0
0
VERTEX
8
Calque 1
10
133.742830
20
244.013233
70
0
0
VERTEX
8
Calque 1
10
133.607084
20
245.385242
70
0
0
VERTEX
8
Calque 1
10
133.209987
20
246.692017
70
0
0
VERTEX
8
Calque 1
10
132.566748
20
247.896837
70
0
0
VERTEX
8
Calque 1
10
131.692577
20
248.962980
70
0
0
VERTEX
8
Calque 1
10
130.626434
20
249.837151
70
0
0
VERTEX
8
Calque 1
10
129.421614
20
250.480390
70
0
0
VERTEX
8
Calque 1
10
128.114839
20
250.877487
70
0
0
VERTEX
8
Calque 1
10
126.742830
20
251.013233
70
0
0
VERTEX
8
Calque 1
10
126.742830
20
251.013233
70
0
0
SEQEND
8
Calque 1
0
POLYLINE
8
Calque 1
62
7
70
0
10
0.000000
20
0.000000
66
1
0
VERTEX
8
Calque 1
10
149.732030
20
251.761311
70
0
0
VERTEX
8
Calque 1
10
148.685709
20
251.682919
70
0
0
VERTEX
8
Calque 1
10
147.679472
20
251.453957
70
0
0
VERTEX
8
Calque 1
10
145.843038
20
250.581598
70
0
0
VERTEX
8
Calque 1
10
144.334312
20
249.218792
70
0
0
VERTEX
8
Calque 1
10
143.737708
20
248.376770
70
0
0
VERTEX
8
Calque 1
10
143.264873
20
247.440095
70
0
0
VERTEX
8
Calque 1
10
142.936888
20
246.443421
70
0
0
VERTEX
8
Calque 1
10
142.763352
20
245.426159
70
0
0
VERTEX
8
Calque 1
10
142.866533
20
243.395679
70
0
0
VERTEX
8
Calque 1
10
143.548237
20
241.480274
70
0
0
VERTEX
8
Calque 1
10
144.097853
20
240.606856
70
0
0
VERTEX
8
Calque 1
10
144.782283
20
239.811564
70
0
0
VERTEX
8
Calque 1
10
145.577575
20
239.127134
70
0
0
VERTEX
8
Calque 1
10
146.450993
20
238.577518
70
0
0
VERTEX
8
Calque 1
10
148.366398
20
237.895814
70
0
0
VERTEX
8
Calque 1
10
150.396878
20
237.792633
70
0
0
VERTEX
8
Calque 1
10
151.414140
20
237.966169
70
0
0
VERTEX
8
Calque 1
10
152.410814
20
238.294154
70
0
0
VERTEX
8
Calque 1
10
153.347489
20
238.766989
70
0
0
VERTEX
8
Calque 1
10
154.189511
20
239.363593
70
0
0
VERTEX
8
Calque 1
10
155.552317
20
240.872319
70
0
0
VERTEX
8
Calque 1
10
156.424676
20
242.708753
70
0
0
VERTEX
8
Calque 1
10
156.653638
20
243.714990
70
0
0
VERTEX
8
Calque 1
10
156.732030
20
244.761311
70
0
0
VERTEX
8
Calque 1
10
156.596284
20
246.133320
70
0
0
VERTEX
8
Calque 1
10
156.199187
20
247.440095
70
0
0
VERTEX
8
Calque 1
10
155.555948
20
248.644915
70
0
0
VERTEX
8
Calque 1
10
154.681777
20
249.711058
70
0
0
VERTEX
8
Calque 1
10
153.615634
20
250.585229
70
0
0
VERTEX
8
Calque 1
10
152.410814
20
251.228468
70
0
0
VERTEX
8
Calque 1
10
151.104039
20
251.625565
70
0
0
VERTEX
8
Calque 1
10
149.732030
20
251.761311
70
0
0
VERTEX
8
Calque 1
10
149.732030
20
251.761311
70
0
0
SEQEND
8
Calque 1
0
POLYLINE
8
Calque 1
62
7
70
0
10
0.000000
20
0.000000
66
1
0
VERTEX
8
Calque 1
10
102.461170
20
227.363503
70
0
0
VERTEX
8
Calque 1
10
101.414849
20
227.285111
70
0
0
VERTEX
8
Calque 1
10
100.408612
20
227.056149
70
0
0
VERTEX
8
Calque 1
10
98.572178
20
226.183790
70
0
0
VERTEX
8
Calque 1
10
97.063452
20
224.820984
70
0
0
VERTEX
8
Calque 1
10
96.466848
20
223.978962
70
0
0
VERTEX
8
Calque 1
10
95.994013
20
223.042287
70
0
0
VERTEX
8
Calque 1
10
95.666028
20
222.045613
70
0
0
VERTEX
8
Calque 1
10
95.492492
20
221.028351
70
0
0
VERTEX
8
Calque 1
10
95.595673
20
218.997871
70
0
0
VERTEX
8
Calque 1
10
96.277377
20
217.082466
70
0
0
VERTEX
8
Calque 1
10
96.826993
20
216.209048
70
0
0
VERTEX
8
Calque 1
10
97.511423
20
215.413756
70
0
0
VERTEX
8
Calque 1
10
98.306715
20
214.729326
70
0
0
VERTEX
8
Calque 1
10
99.180133
20
214.179710
70
0
0
VERTEX
8
Calque 1
10
101.095538
20
213.498006
70
0
0
VERTEX
8
Calque 1
10
103.126018
20
213.394825
70
0
0
VERTEX
8
Calque 1
10
104.143280
20
213.568361
70
0
0
VERTEX
8
Calque 1
10
105.139954
20
213.896346
70
0
0
VERTEX
8
Calque 1
10
106.076629
20
214.369181
70
0
0
VERTEX
8
Calque 1
10
106.918651
20
214.965785
70
0
0
VERTEX
8
Calque 1
10
108.281457
20
216.474511
70
0
0
VERTEX
8
Calque 1
10
109.153816
20
218.310945
70
0
0
VERTEX
8
Calque 1
10
109.382778
20
219.317182
70
0
0
VERTEX
8
Calque 1
10
109.461170
20
220.363503
70
0
0
VERTEX
8
Calque 1
10
109.325424
20
221.735512
70
0
0
VERTEX
8
Calque 1
10
108.928327
20
223.042287
70
0
0
VERTEX
8
Calque 1
10
108.285088
20
224.247107
70
0
0
VERTEX
8
Calque 1
10
107.410917
20
225.313250
70
0
0
VERTEX
8
Calque 1
10
106.344774
20
226.187421
70
0
0
VERTEX
8
Calque 1
10
105.139954
20
226.830660
70
0
0
VERTEX
8
Calque 1
10
103.833179
20
227.227757
70
0
0
VERTEX
8
Calque 1
10
102.461170
20
227.363503
70
0
0
VERTEX
8
Calque 1
10
102.461170
20
227.363503
70
0
0
SEQEND
8
Calque 1
0
POLYLINE
8
Calque 1
62
7
70
0
10
0.000000
20
0.000000
66
1
0
VERTEX
8
Calque 1
10
126.863710
20
227.243713
70
0
0
VERTEX
8
Calque 1
10
125.817389
20
227.165321
70
0
0
VERTEX
8
Calque 1
10
124.811152
20
226.936359
70
0
0
VERTEX
8
Calque 1
10
122.974718
20
226.064000
70
0
0
VERTEX
8
Calque 1
10
121.465992
20
224.701194
70
0
0
VERTEX
8
Calque 1
10
120.869388
20
223.859172
70
0
0
VERTEX
8
Calque 1
10
120.396553
20
222.922497
70
0
0
VERTEX
8
Calque 1
10
120.068568
20
221.925823
70
0
0
VERTEX
8
Calque 1
10
119.895032
20
220.908561
70
0
0
VERTEX
8
Calque 1
10
119.998213
20
218.878081
70
0
0
VERTEX
8
Calque 1
10
120.679917
20
216.962676
70
0
0
VERTEX
8
Calque 1
10
121.229533
20
216.089258
70
0
0
VERTEX
8
Calque 1
10
121.913963
20
215.293966
70
0
0
VERTEX
8
Calque 1
10
122.709255
20
214.609536
70
0
0
VERTEX
8
Calque 1
10
123.582673
20
214.059920
70
0
0
VERTEX
8
Calque 1
10
125.498078
20
213.378216
70
0
0
VERTEX
8
Calque 1
10
127.528558
20
213.275035
70
0
0
VERTEX
8
Calque 1
10
128.545820
20
213.448571
70
0
0
VERTEX
8
Calque 1
10
129.542494
20
213.776556
70
0
0
VERTEX
8
Calque 1
10
130.479169
20
214.249391
70
0
0
VERTEX
8
Calque 1
10
131.321191
20
214.845995
70
0
0
VERTEX
8
Calque 1
10
132.683997
20
216.354721
70
0
0
VERTEX
8
Calque 1
10
133.556356
20
218.191155
70
0
0
VERTEX
8
Calque 1
10
133.785318
20
219.197392
70
0
0
VERTEX
8
Calque 1
10
133.863710
20
220.243713
70
0
0
VERTEX
8
Calque 1
10
133.727964
20
221.615722
70
0
0
VERTEX
8
Calque 1
10
133.330867
20
222.922497
70
0
0
VERTEX
8
Calque 1
10
132.687628
20
224.127317
70
0
0
VERTEX
8
Calque 1
10
131.813457
20
225.193460
70
0
0
VERTEX
8
Calque 1
10
130.747314
20
226.067631
70
0
0
VERTEX
8
Calque 1
10
129.542494
20
226.710870
70
0
0
VERTEX
8
Calque 1
10
128.235719
20
227.107967
70
0
0
VERTEX
8
Calque 1
10
126.863710
20
227.243713
70
0
0
VERTEX
8
Calque 1
10
126.863710
20
227.243713
70
0
0
SEQEND
8
Calque 1
0
POLYLINE
8
Calque 1
62
7
70
0
10
0.000000
20
0.000000
66
1
0
VERTEX
8
Calque 1
10
149.852920
20
227.991791
70
0
0
VERTEX
8
Calque 1
10
148.806599
20
227.913399
70
0
0
VERTEX
8
Calque 1
10
147.800362
20
227.684437
70
0
0
VERTEX
8
Calque 1
10
145.963928
20
226.812078
70
0
0
VERTEX
8
Calque 1
10
144.455202
20
225.449272
70
0
0
VERTEX
8
Calque 1
10
143.858598
20
224.607250
70
0
0
VERTEX
8
Calque 1
10
143.385763
20
223.670575
70
0
0
VERTEX
8
Calque 1
10
143.057778
20
222.673901
70
0
0
VERTEX
8
Calque 1
10
142.884242
20
221.656639
70
0
0
VERTEX
8
Calque 1
10
142.987423
20
219.626159
70
0
0
VERTEX
8
Calque 1
10
143.669127
20
217.710754
70
0
0
VERTEX
8
Calque 1
10
144.218743
20
216.837336
70
0
0
VERTEX
8
Calque 1
10
144.903173
20
216.042044
70
0
0
VERTEX
8
Calque 1
10
145.698465
20
215.357614
70
0
0
VERTEX
8
Calque 1
10
146.571883
20
214.807998
70
0
0
VERTEX
8
Calque 1
10
148.487288
20
214.126294
70
0
0
VERTEX
8
Calque 1
10
150.517768
20
214.023113
70
0
0
VERTEX
8
Calque 1
10
151.535030
20
214.196649
70
0
0
VERTEX
8
Calque 1
10
152.531704
20
214.524634
70
0
0
VERTEX
8
Calque 1
10
153.468379
20
214.997469
70
0
0
VERTEX
8
Calque 1
10
154.310401
20
215.594073
70
0
0
VERTEX
8
Calque 1
10
155.673207
20
217.102799
70
0
0
VERTEX
8
Calque 1
10
156.545566
20
218.939233
70
0
0
VERTEX
8
Calque 1
10
156.774528
20
219.945470
70
0
0
VERTEX
8
Calque 1
10
156.852920
20
220.991791
70
0
0
VERTEX
8
Calque 1
10
156.717174
20
222.363800
70
0
0
VERTEX
8
Calque 1
10
156.320077
20
223.670575
70
0
0
VERTEX
8
Calque 1
10
155.676838
20
224.875395
70
0
0
VERTEX
8
Calque 1
10
154.802667
20
225.941538
70
0
0
VERTEX
8
Calque 1
10
153.736524
20
226.815709
70
0
0
VERTEX
8
Calque 1
10
152.531704
20
227.458948
70
0
0
VERTEX
8
Calque 1
10
151.224929
20
227.856045
70
0
0
VERTEX
8
Calque 1
10
149.852920
20
227.991791
70
0
0
VERTEX
8
Calque 1
10
149.852920
20
227.991791
70
0
0
SEQEND
8
Calque 1
 0 
ENDSEC
 0 
EOF