<svg style="background-color:#fff" height="460.8" viewBox="0 0 460.8 345.6" width="614.4" xmlns="http://www.w3.org/2000/svg" xmlns:xlink="http://www.w3.org/1999/xlink"><defs><style>*{stroke-linecap:butt;stroke-linejoin:round}</style></defs><g id="figure_1"><path d="M0 345.6h460.8V0H0z" fill="#fff" id="patch_1"/><g id="axes_1"><path d="M57.6 307.584h357.12V41.472H57.6z" fill="#fff" id="patch_2"/><g id="matplotlib.axis_1"><g id="xtick_1"><path clip-path="url(#p984c6cdf1c)" d="M73.833 307.584V41.472" fill="none" stroke="#b0b0b0" stroke-linecap="square" stroke-width=".8" id="line2d_1"/><g id="line2d_2"><defs><path d="M0 0v3.5" id="mfef29a55f9" stroke="#000" stroke-width=".8"/></defs><use x="73.833" xlink:href="#mfef29a55f9" y="307.584" stroke="#000" stroke-width=".8"/></g><g id="text_1"><defs><path d="M37.797 64.313L12.89 25.39h24.906zm-2.594 8.593H47.61V25.391h10.407v-8.203H47.609V0h-9.812v17.188H4.89v9.515z" id="DejaVuSans-52"/><path d="M31.781 66.406q-7.61 0-11.453-7.5Q16.5 51.422 16.5 36.375q0-14.984 3.828-22.484 3.844-7.5 11.453-7.5 7.672 0 11.5 7.5 3.844 7.5 3.844 22.484 0 15.047-3.844 22.531-3.828 7.5-11.5 7.5zm0 7.813q12.266 0 18.735-9.703 6.468-9.688 6.468-28.141 0-18.406-6.468-28.11-6.47-9.687-18.735-9.687-12.25 0-18.718 9.688-6.47 9.703-6.47 28.109 0 18.453 6.47 28.14Q19.53 74.22 31.78 74.22z" id="DejaVuSans-48"/></defs><g transform="matrix(.1 0 0 -.1 64.289 322.182)"><use xlink:href="#DejaVuSans-52"/><use x="63.623" xlink:href="#DejaVuSans-48"/><use x="127.246" xlink:href="#DejaVuSans-48"/></g></g></g><g id="xtick_2"><path clip-path="url(#p984c6cdf1c)" d="M128.488 307.584V41.472" fill="none" stroke="#b0b0b0" stroke-linecap="square" stroke-width=".8" id="line2d_3"/><use x="128.488" xlink:href="#mfef29a55f9" y="307.584" stroke="#000" stroke-width=".8" id="line2d_4"/><g id="text_2"><defs><path d="M10.797 72.906h38.719v-8.312H19.828v-17.86q2.14.735 4.281 1.094 2.157.36 4.313.36 12.203 0 19.328-6.688 7.14-6.688 7.14-18.11 0-11.765-7.328-18.296-7.328-6.516-20.656-6.516-4.593 0-9.36.781-4.75.782-9.827 2.344v9.922q4.39-2.39 9.078-3.563 4.687-1.171 9.906-1.171 8.453 0 13.375 4.437 4.938 4.438 4.938 12.063 0 7.609-4.938 12.047-4.922 4.453-13.375 4.453-3.953 0-7.89-.875-3.922-.875-8.016-2.735z" id="DejaVuSans-53"/></defs><g transform="matrix(.1 0 0 -.1 118.945 322.182)"><use xlink:href="#DejaVuSans-53"/><use x="63.623" xlink:href="#DejaVuSans-48"/><use x="127.246" xlink:href="#DejaVuSans-48"/></g></g></g><g id="xtick_3"><path clip-path="url(#p984c6cdf1c)" d="M183.144 307.584V41.472" fill="none" stroke="#b0b0b0" stroke-linecap="square" stroke-width=".8" id="line2d_5"/><use x="183.144" xlink:href="#mfef29a55f9" y="307.584" stroke="#000" stroke-width=".8" id="line2d_6"/><g id="text_3"><defs><path d="M33.016 40.375q-6.641 0-10.532-4.547-3.875-4.531-3.875-12.437 0-7.86 3.875-12.438 3.891-4.562 10.532-4.562 6.64 0 10.515 4.562 3.875 4.578 3.875 12.438 0 7.906-3.875 12.437-3.875 4.547-10.515 4.547zm19.578 30.922v-8.984q-3.719 1.75-7.5 2.671-3.782.938-7.5.938-9.766 0-14.922-6.594-5.14-6.594-5.875-19.922 2.875 4.25 7.219 6.516 4.359 2.266 9.578 2.266 10.984 0 17.36-6.672 6.374-6.657 6.374-18.125 0-11.235-6.64-18.032-6.641-6.78-17.672-6.78-12.657 0-19.344 9.687-6.688 9.703-6.688 28.109 0 17.281 8.204 27.563 8.203 10.28 22.015 10.28 3.719 0 7.5-.734t7.89-2.187z" id="DejaVuSans-54"/></defs><g transform="matrix(.1 0 0 -.1 173.6 322.182)"><use xlink:href="#DejaVuSans-54"/><use x="63.623" xlink:href="#DejaVuSans-48"/><use x="127.246" xlink:href="#DejaVuSans-48"/></g></g></g><g id="xtick_4"><path clip-path="url(#p984c6cdf1c)" d="M237.8 307.584V41.472" fill="none" stroke="#b0b0b0" stroke-linecap="square" stroke-width=".8" id="line2d_7"/><use x="237.8" xlink:href="#mfef29a55f9" y="307.584" stroke="#000" stroke-width=".8" id="line2d_8"/><g id="text_4"><defs><path d="M8.203 72.906h46.875v-4.203L28.61 0H18.312L43.22 64.594H8.203z" id="DejaVuSans-55"/></defs><g transform="matrix(.1 0 0 -.1 228.256 322.182)"><use xlink:href="#DejaVuSans-55"/><use x="63.623" xlink:href="#DejaVuSans-48"/><use x="127.246" xlink:href="#DejaVuSans-48"/></g></g></g><g id="xtick_5"><path clip-path="url(#p984c6cdf1c)" d="M292.455 307.584V41.472" fill="none" stroke="#b0b0b0" stroke-linecap="square" stroke-width=".8" id="line2d_9"/><use x="292.455" xlink:href="#mfef29a55f9" y="307.584" stroke="#000" stroke-width=".8" id="line2d_10"/><g id="text_5"><defs><path d="M31.781 34.625q-7.031 0-11.062-3.766-4.016-3.765-4.016-10.343 0-6.594 4.016-10.36Q24.75 6.391 31.78 6.391q7.032 0 11.078 3.78 4.063 3.798 4.063 10.345 0 6.578-4.031 10.343-4.016 3.766-11.11 3.766zm-9.86 4.188q-6.343 1.562-9.89 5.906Q8.5 49.079 8.5 55.329q0 8.733 6.219 13.812 6.234 5.078 17.062 5.078 10.89 0 17.094-5.078 6.203-5.079 6.203-13.813 0-6.25-3.547-10.61-3.531-4.343-9.828-5.906 7.125-1.656 11.094-6.5 3.984-4.828 3.984-11.796 0-10.61-6.468-16.282-6.47-5.656-18.532-5.656-12.047 0-18.531 5.656-6.469 5.672-6.469 16.282 0 6.968 4 11.797 4.016 4.843 11.14 6.5zM18.314 54.39q0-5.657 3.53-8.828 3.548-3.172 9.938-3.172 6.36 0 9.938 3.172 3.593 3.171 3.593 8.828 0 5.672-3.593 8.843-3.578 3.172-9.938 3.172-6.39 0-9.937-3.172-3.532-3.172-3.532-8.843z" id="DejaVuSans-56"/></defs><g transform="matrix(.1 0 0 -.1 282.912 322.182)"><use xlink:href="#DejaVuSans-56"/><use x="63.623" xlink:href="#DejaVuSans-48"/><use x="127.246" xlink:href="#DejaVuSans-48"/></g></g></g><g id="xtick_6"><path clip-path="url(#p984c6cdf1c)" d="M347.111 307.584V41.472" fill="none" stroke="#b0b0b0" stroke-linecap="square" stroke-width=".8" id="line2d_11"/><use x="347.111" xlink:href="#mfef29a55f9" y="307.584" stroke="#000" stroke-width=".8" id="line2d_12"/><g id="text_6"><defs><path d="M10.984 1.516V10.5q3.72-1.766 7.516-2.688 3.813-.921 7.484-.921 9.766 0 14.907 6.562 5.156 6.563 5.89 19.953-2.828-4.203-7.187-6.453-4.344-2.25-9.61-2.25-10.937 0-17.312 6.61-6.375 6.625-6.375 18.109 0 11.219 6.64 18 6.641 6.797 17.672 6.797 12.657 0 19.313-9.703 6.672-9.688 6.672-28.141 0-17.234-8.188-27.516Q40.234-1.42 26.422-1.42q-3.719 0-7.531.734-3.797.734-7.907 2.203zM30.61 32.422q6.641 0 10.516 4.531 3.89 4.547 3.89 12.469 0 7.86-3.89 12.422-3.875 4.562-10.516 4.562-6.64 0-10.515-4.562-3.875-4.563-3.875-12.422 0-7.922 3.875-12.469 3.875-4.531 10.515-4.531z" id="DejaVuSans-57"/></defs><g transform="matrix(.1 0 0 -.1 337.567 322.182)"><use xlink:href="#DejaVuSans-57"/><use x="63.623" xlink:href="#DejaVuSans-48"/><use x="127.246" xlink:href="#DejaVuSans-48"/></g></g></g><g id="xtick_7"><path clip-path="url(#p984c6cdf1c)" d="M401.767 307.584V41.472" fill="none" stroke="#b0b0b0" stroke-linecap="square" stroke-width=".8" id="line2d_13"/><use x="401.767" xlink:href="#mfef29a55f9" y="307.584" stroke="#000" stroke-width=".8" id="line2d_14"/><g id="text_7"><defs><path d="M12.406 8.297h16.11v55.625l-17.532-3.516v8.985l17.438 3.515h9.86V8.296H54.39V0H12.406z" id="DejaVuSans-49"/></defs><g transform="matrix(.1 0 0 -.1 389.042 322.182)"><use xlink:href="#DejaVuSans-49"/><use x="63.623" xlink:href="#DejaVuSans-48"/><use x="127.246" xlink:href="#DejaVuSans-48"/><use x="190.869" xlink:href="#DejaVuSans-48"/></g></g></g><g id="text_8"><defs><path d="M45.406 27.984q0 9.766-4.031 15.125-4.016 5.375-11.297 5.375-7.219 0-11.25-5.375-4.031-5.359-4.031-15.125 0-9.718 4.031-15.093t11.25-5.375q7.281 0 11.297 5.375 4.031 5.375 4.031 15.093zm8.985-21.203q0-13.953-6.203-20.765Q42-20.797 29.203-20.797q-4.734 0-8.937.703-4.203.703-8.157 2.172v8.735q3.954-2.141 7.813-3.157 3.86-1.031 7.86-1.031 8.843 0 13.234 4.61 4.39 4.609 4.39 13.937v4.453q-2.781-4.844-7.125-7.234Q33.938 0 27.875 0 17.828 0 11.672 7.656q-6.156 7.672-6.156 20.328 0 12.688 6.156 20.344Q17.828 56 27.875 56q6.063 0 10.406-2.39 4.344-2.391 7.125-7.22v8.297h8.985z" id="DejaVuSans-103"/><path d="M3.328 72.906h9.953L28.61 11.281l15.282 61.625h11.093l15.328-61.625 15.282 61.625H95.61L77.297 0H64.89L49.516 63.281 33.984 0H21.578z" id="DejaVuSans-87"/><path d="M2.984 54.688H12.5L29.594 8.797l17.093 45.89h9.516L35.687 0H23.485z" id="DejaVuSans-118"/><path d="M56.203 29.594v-4.39H14.891q.593-9.282 5.593-14.142 5-4.859 13.938-4.859 5.172 0 10.031 1.266 4.86 1.265 9.656 3.812v-8.5Q49.266.734 44.187-.344 39.11-1.422 33.892-1.422q-13.094 0-20.735 7.61-7.64 7.625-7.64 20.625 0 13.421 7.25 21.296Q20.016 56 32.328 56q11.031 0 17.453-7.11 6.422-7.093 6.422-19.296zm-8.984 2.64q-.094 7.36-4.125 11.75-4.032 4.407-10.672 4.407-7.516 0-12.031-4.25-4.516-4.25-5.203-11.97z" id="DejaVuSans-101"/><path d="M9.422 75.984h8.984V0H9.422z" id="DejaVuSans-108"/><path d="M54.89 33.016V0h-8.984v32.719q0 7.765-3.031 11.61-3.031 3.858-9.078 3.858-7.281 0-11.484-4.64-4.204-4.625-4.204-12.64V0H9.08v54.688h9.03v-8.5q3.235 4.937 7.594 7.374Q30.078 56 35.797 56q9.422 0 14.25-5.828 4.844-5.828 4.844-17.156z" id="DejaVuSans-110"/><path d="M34.281 27.484q-10.89 0-15.093-2.484-4.204-2.484-4.204-8.5 0-4.781 3.157-7.594 3.156-2.797 8.562-2.797 7.485 0 12 5.297 4.516 5.297 4.516 14.078v2zm17.922 3.72V0H43.22v8.297Q40.14 3.328 35.547.953q-4.594-2.375-11.234-2.375-8.391 0-13.36 4.719Q6 8.016 6 15.922q0 9.219 6.172 13.906 6.187 4.688 18.437 4.688h12.61v.89q0 6.203-4.078 9.594-4.078 3.39-11.453 3.39-4.688 0-9.141-1.124-4.438-1.125-8.531-3.375v8.312q4.921 1.906 9.562 2.844 4.64.953 9.031.953 11.875 0 17.735-6.156 5.86-6.14 5.86-18.64z" id="DejaVuSans-97"/><path d="M18.313 70.219V54.688h18.5v-6.985h-18.5V18.016q0-6.688 1.828-8.594 1.828-1.906 7.453-1.906h9.218V0h-9.218q-10.407 0-14.36 3.875-3.953 3.89-3.953 14.14v29.688H2.687v6.984h6.594V70.22z" id="DejaVuSans-116"/><path d="M54.89 33.016V0h-8.984v32.719q0 7.765-3.031 11.61-3.031 3.858-9.078 3.858-7.281 0-11.484-4.64-4.204-4.625-4.204-12.64V0H9.08v75.984h9.03V46.188q3.235 4.937 7.594 7.374Q30.078 56 35.797 56q9.422 0 14.25-5.828 4.844-5.828 4.844-17.156z" id="DejaVuSans-104"/><path d="M36.719 67.438L48.829 0h-9.517l-7.468 40.438L5.125 0h-9.516l34.125 52.438-1.703 9.671q-1.078 6.157-6.297 6.157h-4.687l1.453 7.718 5.719-.109q10.984-.14 12.5-8.438z" id="DejaVuSans-Oblique-955"/><path d="M8.594 75.984h20.703V69H17.578V-6.203h11.719v-6.984H8.594z" id="DejaVuSans-91"/><path d="M52 44.188q3.375 6.062 8.063 8.937Q64.75 56 71.093 56q8.548 0 13.188-5.984 4.64-5.97 4.64-17V0h-9.03v32.719q0 7.86-2.797 11.656-2.781 3.813-8.485 3.813-6.984 0-11.046-4.641-4.047-4.625-4.047-12.64V0h-9.032v32.719q0 7.906-2.78 11.687-2.782 3.782-8.595 3.782-6.89 0-10.953-4.657-4.047-4.656-4.047-12.625V0H9.08v54.688h9.03v-8.5q3.078 5.03 7.375 7.421Q29.781 56 35.687 56q5.97 0 10.141-3.031Q50 49.953 52 44.187z" id="DejaVuSans-109"/><path d="M30.422 75.984v-89.171H9.719v6.984H21.39V69H9.719v6.984z" id="DejaVuSans-93"/></defs><g transform="matrix(.1 0 0 -.1 188.06 335.862)"><use transform="translate(0 .016)" xlink:href="#DejaVuSans-87"/><use transform="translate(98.877 .016)" xlink:href="#DejaVuSans-97"/><use transform="translate(160.156 .016)" xlink:href="#DejaVuSans-118"/><use transform="translate(219.336 .016)" xlink:href="#DejaVuSans-101"/><use transform="translate(280.86 .016)" xlink:href="#DejaVuSans-108"/><use transform="translate(308.643 .016)" xlink:href="#DejaVuSans-101"/><use transform="translate(370.166 .016)" xlink:href="#DejaVuSans-110"/><use transform="translate(433.545 .016)" xlink:href="#DejaVuSans-103"/><use transform="translate(497.021 .016)" xlink:href="#DejaVuSans-116"/><use transform="translate(536.23 .016)" xlink:href="#DejaVuSans-104"/><use transform="translate(599.61 .016)" xlink:href="#DejaVuSans-32"/><use transform="translate(631.396 .016)" xlink:href="#DejaVuSans-Oblique-955"/><use transform="translate(690.576 .016)" xlink:href="#DejaVuSans-32"/><use transform="translate(722.363 .016)" xlink:href="#DejaVuSans-91"/><use transform="translate(761.377 .016)" xlink:href="#DejaVuSans-110"/><use transform="translate(824.756 .016)" xlink:href="#DejaVuSans-109"/><use transform="translate(922.168 .016)" xlink:href="#DejaVuSans-93"/></g></g></g><g id="matplotlib.axis_2"><g id="ytick_1"><path clip-path="url(#p984c6cdf1c)" d="M57.6 295.49h357.12" fill="none" stroke="#b0b0b0" stroke-linecap="square" stroke-width=".8" id="line2d_15"/><g id="line2d_16"><defs><path d="M0 0h-3.5" id="mf51401b9dc" stroke="#000" stroke-width=".8"/></defs><use x="57.6" xlink:href="#mf51401b9dc" y="295.491" stroke="#000" stroke-width=".8"/></g><g id="text_9"><defs><path d="M10.688 12.406H21V0H10.687z" id="DejaVuSans-46"/></defs><g transform="matrix(.1 0 0 -.1 34.697 299.29)"><use xlink:href="#DejaVuSans-48"/><use x="63.623" xlink:href="#DejaVuSans-46"/><use x="95.41" xlink:href="#DejaVuSans-48"/></g></g></g><g id="ytick_2"><path clip-path="url(#p984c6cdf1c)" d="M57.6 247.106h357.12" fill="none" stroke="#b0b0b0" stroke-linecap="square" stroke-width=".8" id="line2d_17"/><use x="57.6" xlink:href="#mf51401b9dc" y="247.106" stroke="#000" stroke-width=".8" id="line2d_18"/><g id="text_10"><defs><path d="M19.188 8.297h34.421V0H7.33v8.297q5.609 5.812 15.296 15.594 9.703 9.797 12.188 12.64 4.734 5.313 6.609 9 1.89 3.688 1.89 7.25 0 5.813-4.078 9.469-4.078 3.672-10.625 3.672-4.64 0-9.797-1.61-5.14-1.609-11-4.89v9.969Q13.767 71.78 18.938 73q5.188 1.219 9.485 1.219 11.328 0 18.062-5.672 6.735-5.656 6.735-15.125 0-4.5-1.688-8.531-1.672-4.016-6.125-9.485-1.218-1.422-7.765-8.187-6.532-6.766-18.453-18.922z" id="DejaVuSans-50"/></defs><g transform="matrix(.1 0 0 -.1 34.697 250.905)"><use xlink:href="#DejaVuSans-48"/><use x="63.623" xlink:href="#DejaVuSans-46"/><use x="95.41" xlink:href="#DejaVuSans-50"/></g></g></g><g id="ytick_3"><path clip-path="url(#p984c6cdf1c)" d="M57.6 198.722h357.12" fill="none" stroke="#b0b0b0" stroke-linecap="square" stroke-width=".8" id="line2d_19"/><use x="57.6" xlink:href="#mf51401b9dc" y="198.722" stroke="#000" stroke-width=".8" id="line2d_20"/><g transform="matrix(.1 0 0 -.1 34.697 202.52)" id="text_11"><use xlink:href="#DejaVuSans-48"/><use x="63.623" xlink:href="#DejaVuSans-46"/><use x="95.41" xlink:href="#DejaVuSans-52"/></g></g><g id="ytick_4"><path clip-path="url(#p984c6cdf1c)" d="M57.6 150.337h357.12" fill="none" stroke="#b0b0b0" stroke-linecap="square" stroke-width=".8" id="line2d_21"/><use x="57.6" xlink:href="#mf51401b9dc" y="150.337" stroke="#000" stroke-width=".8" id="line2d_22"/><g transform="matrix(.1 0 0 -.1 34.697 154.136)" id="text_12"><use xlink:href="#DejaVuSans-48"/><use x="63.623" xlink:href="#DejaVuSans-46"/><use x="95.41" xlink:href="#DejaVuSans-54"/></g></g><g id="ytick_5"><path clip-path="url(#p984c6cdf1c)" d="M57.6 101.953h357.12" fill="none" stroke="#b0b0b0" stroke-linecap="square" stroke-width=".8" id="line2d_23"/><use x="57.6" xlink:href="#mf51401b9dc" y="101.953" stroke="#000" stroke-width=".8" id="line2d_24"/><g transform="matrix(.1 0 0 -.1 34.697 105.752)" id="text_13"><use xlink:href="#DejaVuSans-48"/><use x="63.623" xlink:href="#DejaVuSans-46"/><use x="95.41" xlink:href="#DejaVuSans-56"/></g></g><g id="ytick_6"><path clip-path="url(#p984c6cdf1c)" d="M57.6 53.568h357.12" fill="none" stroke="#b0b0b0" stroke-linecap="square" stroke-width=".8" id="line2d_25"/><use x="57.6" xlink:href="#mf51401b9dc" y="53.568" stroke="#000" stroke-width=".8" id="line2d_26"/><g transform="matrix(.1 0 0 -.1 34.697 57.367)" id="text_14"><use xlink:href="#DejaVuSans-49"/><use x="63.623" xlink:href="#DejaVuSans-46"/><use x="95.41" xlink:href="#DejaVuSans-48"/></g></g><g id="text_15"><defs><path d="M44.39 34.188q3.172-1.079 6.172-4.594 3-3.516 6.032-9.672L66.609 0H56l-9.313 18.703q-3.624 7.328-7.015 9.719-3.39 2.39-9.25 2.39h-10.75V0h-9.86v72.906h22.266q12.5 0 18.656-5.234 6.157-5.219 6.157-15.766 0-6.89-3.203-11.437-3.204-4.532-9.297-6.282zM19.673 64.797V38.922h12.406q7.125 0 10.766 3.297 3.64 3.297 3.64 9.687 0 6.39-3.64 9.64-3.64 3.25-10.766 3.25z" id="DejaVuSans-82"/><path d="M9.422 54.688h8.984V0H9.422zm0 21.296h8.984v-11.39H9.422z" id="DejaVuSans-105"/><path d="M44.281 53.078v-8.5q-3.797 1.953-7.906 2.922-4.094.984-8.5.984-6.688 0-10.031-2.047-3.344-2.046-3.344-6.156 0-3.125 2.39-4.906 2.391-1.781 9.626-3.39l3.078-.688q9.562-2.047 13.593-5.781 4.032-3.735 4.032-10.422 0-7.625-6.032-12.078-6.03-4.438-16.578-4.438-4.39 0-9.156.86Q10.688.296 5.422 2v9.281q4.984-2.594 9.812-3.89 4.829-1.282 9.579-1.282 6.343 0 9.75 2.172 3.421 2.172 3.421 6.125 0 3.656-2.468 5.61-2.453 1.953-10.813 3.765l-3.125.735q-8.344 1.75-12.062 5.39-3.704 3.64-3.704 9.985 0 7.718 5.47 11.906Q16.75 56 26.811 56q4.97 0 9.36-.734 4.406-.72 8.11-2.188z" id="DejaVuSans-115"/><path d="M18.11 8.203v-29H9.077v75.484h9.031v-8.296q2.844 4.875 7.157 7.234Q29.594 56 35.594 56q9.968 0 16.187-7.906 6.235-7.907 6.235-20.797T51.78 6.484q-6.218-7.906-16.187-7.906-6 0-10.328 2.375-4.313 2.375-7.157 7.25zm30.578 19.094q0 9.906-4.079 15.547-4.078 5.64-11.203 5.64-7.14 0-11.218-5.64-4.079-5.64-4.079-15.547 0-9.906 4.078-15.547 4.079-5.64 11.22-5.64 7.124 0 11.202 5.64t4.078 15.547z" id="DejaVuSans-112"/><path d="M30.61 48.39q-7.22 0-11.422-5.64-4.204-5.64-4.204-15.453 0-9.813 4.172-15.453 4.188-5.64 11.453-5.64 7.188 0 11.375 5.655 4.203 5.672 4.203 15.438 0 9.719-4.203 15.406-4.187 5.688-11.375 5.688zm0 7.61q11.718 0 18.406-7.625 6.703-7.61 6.703-21.078 0-13.422-6.703-21.078-6.688-7.64-18.407-7.64-11.765 0-18.437 7.64-6.656 7.656-6.656 21.078 0 13.469 6.656 21.078Q18.844 56 30.609 56z" id="DejaVuSans-111"/></defs><g transform="matrix(0 -.1 -.1 0 28.617 220.739)"><use xlink:href="#DejaVuSans-82"/><use x="69.42" xlink:href="#DejaVuSans-101"/><use x="130.943" xlink:href="#DejaVuSans-108"/><use x="158.727" xlink:href="#DejaVuSans-97"/><use x="220.006" xlink:href="#DejaVuSans-116"/><use x="259.215" xlink:href="#DejaVuSans-105"/><use x="286.998" xlink:href="#DejaVuSans-118"/><use x="346.178" xlink:href="#DejaVuSans-101"/><use x="407.701" xlink:href="#DejaVuSans-32"/><use x="439.488" xlink:href="#DejaVuSans-82"/><use x="508.908" xlink:href="#DejaVuSans-101"/><use x="570.432" xlink:href="#DejaVuSans-115"/><use x="622.531" xlink:href="#DejaVuSans-112"/><use x="686.008" xlink:href="#DejaVuSans-111"/><use x="747.189" xlink:href="#DejaVuSans-110"/><use x="810.568" xlink:href="#DejaVuSans-115"/><use x="862.668" xlink:href="#DejaVuSans-101"/></g></g></g><path clip-path="url(#p984c6cdf1c)" d="M73.833 239.123l1.64 5.064 1.64 1.752 1.639 4.527 1.64-36.628 1.64 3.934 1.639 6.509 1.64-13.342 1.64-6.098 1.639-5.101 1.64-8.882 1.64-2.912 1.639-5.823 1.64-6.465 1.64-3.234 1.639-5.454 1.64 1.202 1.64-1.652 1.639-14.665 1.64 4.448 1.64-3.78 1.639-1.5 1.64-.169 1.64 3.125 1.639-1.865 1.64.232 1.64 3.973 1.639.757 3.28 13.442 1.639 4.82 1.64 6.255 1.64 7.605 1.639 8.204 1.64 3.058 1.64 6.996 1.639 10.177 1.64 4.967 1.64 7.493 1.639 9.147 3.28 11.787 1.639 4.495 1.64 3.918 1.64 2.705 1.639 3.702 1.64 2.264 1.64.85 1.639 1.783 1.64 2.982 4.919 7.762 1.64 1.857 1.639 1.209 1.64 1.014 1.64 1.374 3.279.826 6.558.34 1.64.555 3.28.759 4.918.996 4.92.247 3.279-.138 3.279-.533 1.64-.368 1.64-.253 1.639-.496 1.64-.309 1.64.147 3.279.902 3.279 1.328 1.64.71 6.558 2.007 6.559.821 9.838.477 1.64.434 6.558.09 40.992-.094 8.198-.026 9.838.017 6.56-.217 3.278-.37 3.28.012 3.28.492 3.278.1 4.92.087 18.036-.016 1.64-.14 3.279-.153 3.28-.043 8.198.342 19.676.013 16.396-.001h0" fill="none" stroke="#00f" stroke-dasharray="9.6,2.4,1.5,2.4" stroke-width="1.5" id="line2d_27"/><path clip-path="url(#p984c6cdf1c)" d="M73.833 280.784l1.64 1.8 3.279 3.113 1.64-7.52 1.64 1.319 1.639 1.541 1.64-1.327 3.279 1.871 1.64-.192 1.64.032 1.639-.647 1.64-1 3.279-1.106 1.64.915 1.64.403 1.639-.75 1.64.196 1.64-3.889 1.639-3.374 1.64-8.584 3.279-26.772 1.64-16.86 1.64-25.75 1.639-16.838 1.64-21.262 1.64-5.684 1.639-16.69 1.64-5.813 1.64-5.082 1.639-11.308 1.64-7.89 1.64 3.873 1.639-14.905 1.64-2.945 1.64-2.544 1.639-.663 1.64-6.188 1.64.728 1.639-1.03 1.64 4.201 3.279-14.09 1.64 4.088 1.64-3.276 1.639 3.26 1.64 5.104 1.64-4.288 1.639 4.297 1.64 3.257 1.64 1.188 1.639-.146 1.64 3.738 1.64 7 1.639 1.596 1.64 2.588 1.64.046 1.639 5.784 1.64 2.805 1.64 5.986 1.639 12.01 1.64 9.977 1.64 9.096 3.279 19.236 1.64 16.694 4.918 28.674 1.64 8.732 3.28 11.967 1.639 2.593 1.64 2.899 3.279 7.742 1.64 4.868 1.64 5.273 1.639 6.952 1.64 8.052 3.279 9.992 1.64 3.866 1.64 2.423 3.279 3.824 1.64 1.047 3.279 1.008 3.279.918 3.28.406 1.639.33 1.64.157 3.279.584 1.64 2.326 3.279.12 4.919.051 11.478.018 9.838.286 8.198.049 11.478-.047 6.558.082 8.199.037 8.198-.206 3.28-.316 3.279.041 3.28.438 26.234.14 4.919-.268 3.28-.04 8.198.323 9.838.034 26.234-.001h0" fill="none" stroke="green" stroke-dasharray="1.5,2.475" stroke-width="1.5" id="line2d_28"/><path clip-path="url(#p984c6cdf1c)" d="M73.833 282.7l1.64 1.66 3.279 2.817 1.64-6.36 1.64 1.12 1.639 1.334 1.64-1.087 1.64.788 1.639.956 1.64.367 1.64.874 1.639.631 1.64.441 1.64.607 1.639.432 1.64.83 1.64.304 1.639.033 1.64.397 1.64.183 4.918-.008 1.64-.273 3.28-.155 1.639-.015 4.919.662 3.28.095 3.278-.658 1.64-.038 1.64-1.544 1.64-.626 1.64-1.14 1.639-1.412 1.64-2.4 1.64-1.67 1.639-1.437 1.64-.101 1.64.028 1.639 2.308 1.64 1.88 1.64 1.077 1.639 1.323 1.64 1.619 1.64.563 1.639.286 1.64-.176 1.64-.5 3.279-1.83 1.64-3.128 1.639-3.992 1.64-16.302 1.64-26.705 6.558-153.382 1.64-4.177 1.64-12.674 1.639-6.615 1.64-3.012 1.64-1.33 1.639.507 3.28 5.096 1.639 1.98 1.64 2.264 1.64 1.28 1.639-1.61 1.64-2.635 1.64 2.484 1.639 4.047 1.64 13.591 1.64 20.052 1.639 28.665 1.64 35.358 1.64 22.624 1.639 24.29 1.64 20.02 1.64 13.77 3.279 23.612 1.64 6.457 3.279 6.11 1.64 2.45 1.639 1.888 3.28 1.708 1.639 1.06 1.64.519 1.64.734 1.639.57 1.64 3.197 1.64.03 3.279.329 3.279-.124 6.559-.792 1.64-.057 1.639.06 8.198 1.103 6.56.561 3.278.1 21.316.329 6.559.042 6.558-.143 3.28-.331 3.28-.16 1.639.073 3.28.464 22.955.18 6.558-.11 3.28-.197 1.64.002 3.279.168 18.036.246 22.955-.138h0" fill="none" stroke="red" stroke-linecap="square" stroke-width="1.5" id="line2d_29"/><path d="M57.6 307.584V41.472" fill="none" stroke="#000" stroke-linecap="square" stroke-width=".8" id="patch_3"/><path d="M414.72 307.584V41.472" fill="none" stroke="#000" stroke-linecap="square" stroke-width=".8" id="patch_4"/><path d="M57.6 307.584h357.12" fill="none" stroke="#000" stroke-linecap="square" stroke-width=".8" id="patch_5"/><path d="M57.6 41.472h357.12" fill="none" stroke="#000" stroke-linecap="square" stroke-width=".8" id="patch_6"/><g id="legend_1"><path d="M345.22 93.506h62.5q2 0 2-2V48.472q0-2-2-2h-62.5q-2 0-2 2v43.034q0 2 2 2z" fill="#fff" opacity=".8" stroke="#ccc" id="patch_7"/><path d="M347.22 54.57h20" fill="none" stroke="#00f" stroke-dasharray="9.6,2.4,1.5,2.4" stroke-width="1.5" id="line2d_30"/><g id="text_16"><defs><path d="M19.672 34.813V8.108H35.5q7.953 0 11.781 3.297 3.844 3.297 3.844 10.078 0 6.844-3.844 10.078-3.828 3.25-11.781 3.25zm0 29.984V42.828h14.61q7.218 0 10.75 2.703 3.546 2.719 3.546 8.282 0 5.515-3.547 8.25-3.531 2.734-10.75 2.734zm-9.86 8.11h25.204q11.28 0 17.375-4.688Q58.5 63.53 58.5 54.89q0-6.703-3.125-10.657-3.125-3.953-9.188-4.922 7.282-1.562 11.313-6.53 4.031-4.954 4.031-12.376 0-9.765-6.64-15.093Q48.25 0 35.984 0H9.812z" id="DejaVuSans-66"/><path d="M8.5 21.578v33.11h8.984V21.922q0-7.766 3.016-11.656 3.031-3.875 9.094-3.875 7.265 0 11.484 4.64 4.234 4.64 4.234 12.656v31h8.985V0h-8.984v8.406Q42.047 3.422 37.718 1q-4.313-2.422-10.032-2.422-9.421 0-14.312 5.86Q8.5 10.296 8.5 21.578zM31.11 56z" id="DejaVuSans-117"/></defs><g transform="matrix(.1 0 0 -.1 375.22 58.07)"><use xlink:href="#DejaVuSans-66"/><use x="68.604" xlink:href="#DejaVuSans-108"/><use x="96.387" xlink:href="#DejaVuSans-117"/><use x="159.766" xlink:href="#DejaVuSans-101"/></g></g><path d="M347.22 69.249h20" fill="none" stroke="green" stroke-dasharray="1.5,2.475" stroke-width="1.5" id="line2d_32"/><g id="text_17"><defs><path d="M59.516 10.406v19.578h-16.11v8.11h25.875V6.78Q63.578 2.734 56.687.656 49.813-1.422 42-1.422q-17.094 0-26.75 9.985-9.64 10-9.64 27.812 0 17.875 9.64 27.86 9.656 9.984 26.75 9.984 7.125 0 13.547-1.766 6.422-1.75 11.844-5.172v-10.5q-5.47 4.64-11.625 6.985-6.157 2.343-12.938 2.343-13.39 0-20.11-7.468-6.702-7.47-6.702-22.266 0-14.75 6.703-22.219 6.718-7.469 20.11-7.469 5.218 0 9.312.907 4.109.906 7.375 2.812z" id="DejaVuSans-71"/><path d="M41.11 46.297q-1.516.875-3.297 1.281Q36.03 48 33.89 48q-7.625 0-11.703-4.953-4.079-4.953-4.079-14.234V0H9.08v54.688h9.03v-8.5q2.844 4.984 7.375 7.39Q30.031 56 36.531 56q.922 0 2.047-.125 1.125-.11 2.484-.36z" id="DejaVuSans-114"/></defs><g transform="matrix(.1 0 0 -.1 375.22 72.749)"><use xlink:href="#DejaVuSans-71"/><use x="77.49" xlink:href="#DejaVuSans-114"/><use x="118.572" xlink:href="#DejaVuSans-101"/><use x="180.096" xlink:href="#DejaVuSans-101"/><use x="241.619" xlink:href="#DejaVuSans-110"/></g></g><path d="M347.22 83.927h20" fill="none" stroke="red" stroke-linecap="square" stroke-width="1.5" id="line2d_34"/><g id="text_18"><defs><path d="M45.406 46.39v29.594h8.985V0h-8.985v8.203Q42.578 3.328 38.25.953q-4.313-2.375-10.375-2.375-9.906 0-16.14 7.906-6.22 7.922-6.22 20.813 0 12.89 6.22 20.797Q17.968 56 27.874 56q6.063 0 10.375-2.375 4.328-2.36 7.156-7.234zm-30.61-19.093q0-9.906 4.079-15.547 4.078-5.64 11.203-5.64 7.125 0 11.219 5.64 4.11 5.64 4.11 15.547 0 9.906-4.11 15.547-4.094 5.64-11.219 5.64-7.125 0-11.203-5.64-4.078-5.64-4.078-15.547z" id="DejaVuSans-100"/></defs><g transform="matrix(.1 0 0 -.1 375.22 87.427)"><use xlink:href="#DejaVuSans-82"/><use x="69.42" xlink:href="#DejaVuSans-101"/><use x="130.943" xlink:href="#DejaVuSans-100"/></g></g></g></g></g><defs><clipPath id="p984c6cdf1c"><path d="M57.6 41.472h357.12v266.112H57.6z"/></clipPath></defs></svg>