P1
# Created by GIMP version 2.10.12 PNM plug-in
50 50
1111111111111111111111111111111111111111111111111111111111111111111111
1111111111111111111111111111111111111111111111111111111111111111111111
1111111111111111111111111111111111111111111111111111111111111111111111
1111111111111111111111111111111111111111111111111111111111111111111111
1111111111111111111111111111111111111111111111111111111111111111111111
1111111111111111111111111111111111111111111111111111111111111111111111
1111111111111111111111111111111111111111111111111111111111111111111111
1111111111111111111111111111111111111111111111111111111111111111111111
1111111111111111111111111111111111111111111111111111111111111111111111
1111111111111111111111111111111111111111111111111111111111111111111111
1111111111111111111111111111111111111111111111111111111111111111111111
1111111110000111111111111111111111111111111111111111111100000000111111
1111111111111111111111111111111111000000000011111111111111111111111111
1111111111110000000000001111111111111111111111111111111111111000000000
0000111111111111111111111111111111111110000000000000001111111111111111
1111111111111111110000000000000000111111111111111111111111111111111000
0000000110000011111111111111111111111111111111000000000111100001111111
1111111111111111111111111000000001111100000111111111111111111111111111
1111000000001111100000111111111111111111111111111111110000001111110000
0011111111111111111111111111111110000001111110000001111111111111111111
1111111111111000000111110000000111111111111111111111111111111110000011
1110000000111111011111111111111111111111111000001111000000001111100111
1111111111111111111111100000111000000000011000011111111111111111111111
1110000010000110000000000011111111111111111111111111110000000011100000
0000011111111111111111111111111111000000011110000000001111111111111111
1111111111111110000011111000000001111111111111111111111111111111110001
1111100000001111111111111111111111111111111111111111111100001111111111
1111111111111111111111111111111111111111111111111111111111111111111111
1111111111111111111111111111111111111111111111111111111111111111111111
1111111111111111111111111111111111111111111111111111111111111111111111
1111111111111111111111111111111111111111111111111111111111111111111111
1111111111111111111111111111111111111111111111111111111111111111111111
1111111111111111111111111111111111111111111111111111111111111111111111
1111111111111111111111111111111111111111111111111111111111111111111111
1111111111111111111111111111111111111111111111111111111111111111111111
11111111111111111111111111111111111111111111111111